<svg version="1.1" xmlns="http://www.w3.org/2000/svg" x="0" y="0" viewBox="0 0 200 200" xml:space="preserve"><path fill="#FFF" d="M34.6 68.8l-1.7 3.6 14.5 17.7 8-11M94.7 47.7l-3 5.5L89.1 64l2.4 9.5 4.6 7.8 10.1 3.2s11.1-11.1 11.1-11.3c0-.3-1.4-23.5-1.4-23.5l-14-7.9-7.2 5.9zM163.6 85.1l7.3-1.3s4.2-17.6 5.1-18.2c1-.7 4.2-17.4 4.2-17.4l-15.6-6.9-9.9 5.1-3.9 8.7-.4 3.7-1.8 4.1.3 13.2 2 7.7 12.7 1.3z"/><path d="M64.9 26.5c.1.6.2 1.2.3 1.7h.1c.4-.2.8-.2 1.4-.1 1.8 1.2 2.1 2.2 2 5.2.4-.1.7-.2 1-.4.2-.6.2-1.1 0-1.6l.2-.2c.1.1.2.1.3.2l.3.6c0 1.6-.8 1.6-1 2.5l.3 1.8c.1 1.6-.3 3.3-.3 5.3-2.5 1.8-.8 6.1-1.4 9.4-.4 2.4-1.4 4.9-1.5 7.3-.1 1.3 1.2 2.7.8 4.4-.6 2.4-2 4.4-3.2 6.3v.1c1.7.3 3.4 2 4.8 2.8 2 1.2 4 2.3 6 3.4 1.3 1 3.3 7.8 3.4 10.4 1.2-.9 2.4-1.7 3.6-2.6-.1.1-.2.2-.3.4-.2.2-.5.4-.8.6 1-.6 2.1-1.2 3.2-1.8l-1.2 1.2c1.5-.7 7.4-1.2 7.5-1.4.4-.6 1.5-1.4 2-1.2 0 .7 0 .5.4.8 0-.6-.2-.6.2-.8.3.4.1.1.6.2 0 .6.1 1.3.1 1.9.1 0 .1-.1.2-.1V82c0 .2.1.3.1.5.1-.8.2-1.5.3-2.3v.2c.2.1.1 0 .2.4.1-.1.2-.1.3-.2.1-1.1.3-2.4-.2-3.4h-.1c-.1.4-.1.8-.2 1.2 0-.6.1-1.1.1-1.6 1.2 1 2.3 2 3.4 3-1-.1-1.2-.3-2.1-1 .8 1.3 2.4 2.9 4.1 3.3l-.3-.3c-.2-.3-.4-.6-.7-1v-.1h.4l1.4 1.4c5.2 0 5.8-3.8 9.5-4.8v.1c-.9 1.6-2.7 2.4-3.8 3.8 1.1-.4 1.7-1.4 2.7-1.8l1.2-.3c1.3-.9 1.9-2.6 3.3-3.4h.1c-.1.2-.1.5-.2.8.1-.1.2-.1.3-.2.8-2 2-3.4 2.6-5.6l-.9 1.2h-.2v-.3c-.6-2.4 1.5-4.3 1-7.6v-1.4c-.2-.2-.8-.5-.9-.8-.5-1.2-.1-2.6-.5-3.8-.4-1.2-1.3-2.5-1.4-4.1h.2c0 .4 0 .4.2.6v-.3c-.7-1.8-1.8-4.7-3.4-4.4l-3.3-2.1c-.2-.3-.4-.6-.7-.9-.6 0-1.2-.1-1.7-.1-4.5-.8-7.4.8-10.3 2.6-.4.8-.9 1.6-1.4 2.4-.6 1-1.9 3.5-1.4 5.2l.4-.4c1.6-.7 2.3-2.3 4.3-2.5.5.5.6.9.2 1.5-2.3-.2-3.8 1.5-5.5 2.5.1.8.6 1.6.3 2.6-.4 1.2-2.2 2.4-2 4.1.1 1.8 1.4 6.9 2.2 8.2.7 1.2 1.5 2.3 2.2 3.4-.2.2-.3.4-.5.6H93c-.8-1.4-1.5-2.7-2.3-4.1-1.2-2.8-3.1-11.4-1.8-14.9-.2.2-.4.3-.6.5.1-2.3 1.4-3.6 1.8-5.4.3-1-.1-2 .3-3 .5-1.2 1.4-2.4 1.5-4.1h-.1l-.3.3c-.2.2-.4.3-.7.5.4-2.4 4.1-3.5 6.2-4.3 1.6-.6 2.8-1.9 4.7-2.4 4.2-1 8.2 1.4 10.4 3.2-.6-1.2-1.9-1.8-2-3.4h.1c.1.1.2.1.3.2.9 2.2 3.4 3.4 4.5 5.3.5.9.4 2.3 1.2 3 1.3 1.1 3.5 1.5 4.3 3.1v.1h-.1c-.7-.4-1-1-1.9-1.2.7.9 1.5 1.8 2.2 2.8 1.1 2 1.4 4.9 2.1 7.2.4 1.3-.7 1.8-.7 2.8 0 1.4 1 4 .4 5.8-.9 1.1-1.7 2.2-2.6 3.4-.8 1.4-1.4 2.7-2.1 4.1 1.5 2.3 6.7 5.9 9.3 7 1.9.6 3.9 1.2 5.8 1.7.6.8 1.3 1.6 1.9 2.4h.8c.1-.4.1-.9.2-1.4h.1c.1.1.2.1.4.2.1.5.1.8.7 1 2-1.4 10.2-3 13.4-3.4l-.3-.3c-.5-1.2-1.7-1.9-2-3.3.1.1.2.2.4.3.4.9 1.5 2.7 2.3 3.2-1-1.6-1.6-2.8-1.6-5.5h.1v.2c.2.2.4.5.6.8h.1v-1.2c.1 0 .1.1.2.1 2 5.9 8.7 5.8 14 3.3.6-.5 1.2-1 1.7-1.4 5.1-3.2 7.1-6.1 8.3-12.4-.1-.5-.1-1-.2-1.4.5-3.1 2.2-4.2.4-6.9-.3-.6-.6-1.1-.9-1.6-.9-.7-6.3-1.1-6.8-.4-.3.2-.3.2-.4.7l.9.9c2.6-1.7 5.1 1.5 7 2 0 .5.5.6.1 1-.4-.2-.5-.2-.5-.7-.2 0-.4-.1-.7-.1.2.2.3.5.5.8l-1.5-1.2c-1.7-.3-3.4-.6-5.1-1-1-.4-1-.9-2.6-.9-.4.8-.6 1 .1 1.4.3 1 .6 2 1 3.1 1.4 1.5 2.9 2.6 3.4 4.8-1-.6-1.4-1.5-2.2-2.3-.9-.8-2.8-.7-3.6-1.7-.2-.2-.2-.2-.1-.5.2-.4.6-.5.9-.8 0-2.5-1.9-2.6-2.8-4.1.4-2.2 2.6-2.9 4.3-3.4v.1c-.1.1-.1.2-.2.4 1.5-.3 1.7-1.2 2.6-2 .8.3 1.7 1.1 2.6 1.4.7.1 1.4.2 2 .3.9.4 1 .9 2.3 1 1.5-2 3.4-3.7 3.4-7.1-4.7-3.4-5.7-4.3-13.7-4.7 0-.1.1-.1.1-.2.6-.2 1.2-.4 1.7-.6-2.4 0-10.1 2.1-11.1 3.4-.4 1.1-.9 2.2-1.4 3.3-.9 1.5-2.5 2.7-2.3 5 1.6-.8 4.4-2.3 6.7-1.9.3 1.3 1 1.8 1.4 3.2-.4.6-.7 1.1-1 1.6-.2 0-.4-.1-.7-.1V58c.4-.4.9-.8.7-1.2-.9-2.6-5.9-1.3-7.3.2.6 1.6-1.3 4.1-2.2 5 .3-.9.6-1.8 1-2.8.4-2 0-4 .4-5.9.5-2 2.1-3.6 2.1-6.1-.1.1-.2.1-.3.2-.2.4-.4.7-.6 1 .1-2.9 2-4.3 3.4-6 .8-1.2 1.5-2.4 2.3-3.6 2-1.9 14.2-2.8 17.6-1.4 1.4.6 1.7 2.8 2.9 3.4 2.1 1.2 2 .8 3.1 3 .4.5.8 1 1.2 1.4.2.6.4 1.1.6 1.6 1.2 1.8 3.3 3.2 3.9 5.6.8 3.7-.4 7.6-1 10.3l.6 4.5c-1 2.1-1.9 4.3-2.9 6.3-.8 1-2.2 1.8-3.2 2.7h-1.2c0 1 .2 1-.2 1.6 0-.4 0-.5-.2-.7h-.1v.2c-.3.6.1 1.5.1 2 0 0-.6 1.1-.5 1.6.5 1.9 1.1 3.8 1 5.7l.1.1 4.4-.7c.9.2.5.6.8 1.4.1-.3.1-.6.2-.9.1.1.2.1.3.2.7.8 2.9.3 4.1 1l7.8 9.3c0 1.4-.1 2.9-.1 4.3v4.6c-.4 2.5-.5 7.7 0 9.4.3-.1.1-.1.4-.1.1 1.3.1 2.6.2 3.9-.9.1-1.7.2-2.6.4.3 0 .6.1 1 .1-1 .1-2.1.1-3.2.2h1c0 .1-.1.1-.1.2-.7 0-1.4.1-2.1.1l.1.1c.4 0 .7-.1 1 .2v.1h-.1c-.6-.2-3-.3-3.9.1 1.2.1 2.3.1 3.4.2v.1c-1 0-1.9.1-2.9.1v.2c.3 0 .6.1 1 .1h-1.6c0 .1.1.1.1.2.2 0 .4.1.7.1-.1 0-.2.1-.3.1.9-.1 8.3-.3 9.4.2-3.2.1-6.5.1-9.7.2 3.3 0 6.5.1 9.8.1v.2c.4 1.1-.8 2.3-.4 3.4.3.9 1.1 4.2.5 5.7-.2-.1-.3-.2-.5-.3.1.7 0 1.7 0 2.8h-.4c-.1-.6-.1-1.2-.2-1.7 0 .1-.1.1-.1.2-.2.4-.1.8-.1 1.4-.4 0-.6 0-.9.2.2.5 0 3.8-.2 4.3-.5 0-1 .1-1.4.1v.6c0 .1.1.2.1.3h.1c.2-.6.5-.4 1-.6h.1c.2 1.5 0 2.8.5 4.1.5.1 1 .1 1.4.2.2 1.4.3 2.9.5 4.3 0 1.4-.1 2.8-.1 4.3 0-.5.2-1.6.5-1.4.1.2.1.4.2.7.1-.1.2-.1.3-.2v1c.1-.1.2-.1.3-.2 0 1.1-.7 4.2-1.7 4.4 0 0-.7.4-1.4.1 0-.4-.4-1-.9-1 0 .1-.1.1-.1.2v5c-.2 1.5-.8 7.1-.3 8.5.2.4.4.5.5 1.2 0 .1-.1.1-.1.2h-.8c-.1 1.9-.1 3.9-.2 5.8h-1.5c0 .3-.1 4.1-.3 4.3-2 .8-4.3 0-6.7.3-3.2.4-8.6 0-12-.5-.7-.1-1.2.2-1.4.3h-4.9c0 .3.1.1-.1.4-1.6-.9-5.9-.4-7.5-.1v.1c.1 0 .2-.1.4-.1-.2.2-.7.2-1 .3v.1c.1 0 .2.1.4.1.8.1 1.5.1 2.3.2-.7 0-1.4.1-2 .1 3 0 5.5 0 7.4-.6 0 .1-.1.2-.1.4 1.7 0 3.4.1 5.1.1 0 .2-.1.5-.1.8-4.1.3-7.7.3-12.7.3-2.2 0-4.3-.1-6.5-.1-3.3 0-6.5.1-9.8.1-1 .1-2.1.1-3.2.2-5.8-.8-11.3-1.6-17.1-.7v.1c3.5.1 7 .2 10.5.4-4.2-.1-8.3-.1-12.5-.2 1 0 1.9-.1 2.9-.1-2 0-2.8-.1-4.3 0 .1 0 .2-.1.3-.1l-14.7-.3c0 .1.1.1.1.2h.2c.7 0 1.4.1 2 .1-.2.2-.2.2-.5.1-1.5.5-4.1-.6-5.4 0-3 1.5-8.1.4-11.6.9-1.5.2-7.3-.1-7.8-.7-.2.4 0 .3-.5.4-2.5 0-5.1-.1-7.6-.1-.1-.2-.2-.4-.4-.6-1.5 0-3.1-.1-4.6-.1-4.3-.4-8.7-.9-13-1.4-1.1-.2-5.2-.6-6.1-.2.6.1 1.1.1 1.6.2v.1c-1.9 0-5.5.5-6.3-.3.6 0 1.2-.1 1.8-.1-5.4-.1-10.8-.1-16.2-.2v.4c.1-.1.2-.1.3-.2 0 .6 0 .3-.3.6.2.2.6.4.1.6 0-.1.1-.1.1-.2-.1 0-.2-.1-.3-.1-.2.4 0 .3-.4.2.1-.1.2-.1.3-.2 0-.1-.1-.1-.1-.2-.6.1-.7.3-1.2.8-.3.3-2.4-.5-3.1.3-.1 0-.2.1-.4.1-.3-.2-.6-.4-1-.6.1-.1.2-.1.3-.2l-.6-.9c-.8.1-.6.6-1 1-.1 0-.1-.1-.2-.1.2-.5.3-.6-.1-.8 0 .3-.1.2-.3.6.2.2.1.2.5.3 0 .1-.1.2-.1.3-1.5-.3-1.2.8-3 .1v.1c.1.1.1.2.2.3-1.9-.2-3.8-.7-4.9-1 .2-.2 0-.1.3-.2 0-.1.1-.2.1-.3-.4-.4-.2-.3-1-.1 0-.2.1-.3.1-.5h-.8c-.1.9-1 1.1-1.9 1.4 0-.4.2-.2-.2-.4.1.1.1.2.2.3-1.5-.3-3 .2-4.7-.2 0-.1-.1-.2-.1-.4 1 0 .6-.1 1.4 0 0-.4-.1-.4.1-.4.2.2.4.3.6.5h3.9v-.3c-.2 0-.3-.1-.5-.1.2-.2.1-.1.2-.5-1.1 0-1.7.2-2.3.4-.2-1.1-5.8 0-7.3-1-.1-.6-.1-1.3-.2-1.9-.2-.8-1.1-1.1-1.2-2.1.4-.5.7-.8 1.2-1.2 0-4.3-.1-8.5-.1-12.7 0-1.4.4-4.3-.3-5.2-.3 0-.1.1-.3-.1.2-.2-.3-2.5-.3-3.3-.1-2.1-.2-4.2-.4-6.3.3 0 .2.1.5-.1-.2-.2-.3-.4-.5-.7.2-.1.3-.2.5-.4l-.3-.6c.6-.3.2-.6.7-1 .1.2-.1.1.2.2v-.3c-.2-.1-.2-.1 0-.2v-.3c-.1 0-.2.1-.3.1.2-.5.5-1-.1-1.6 0 .2.1 0-.1.3l-.2-.2c0-.4-.1-.7-.1-1-1-.1-1-.8-1.7-.7.1-.7-.1-1.5.5-1.9.3 0 .6-.1.9-.1-.5-2.5.3-6.3.3-10.6 0-1.1.2-2.4-.1-3.2-.2.1-.4.1-.7.2-.1-.6-.3-.5-.7-.9.2 0 .4-.1.7-.1 0 .2.1.4.1.6.7 0 .8-.2.7-.7.1-.2.1-.2.2-.6.7 0 1.4-.1 2-.1-.1-.1-.2-.1-.3-.2.5-.1 1-.1 1.4-.2-.1 0-.2-.1-.4-.1.1 0 1.8-.1 1.9-.3h-.5c.4-.2 1.7 0 1.5-.3.2-.2.2-.2.3-.4-.1 0-.2-.1-.3-.1.1-.1.2-.1.4-.2-2-.2-4.2-1-6.1-.4 0-3.5.3-6.3-.3-8.9.6-.3.6-.8.5-1.6-.3-.8-.2-1.5.2-2-.4-.1-.8-.5-1-.6-.3.2-.1.4-.4.1.2-.6-.6-1.3-.8-1.7.2-.1.3-.1.5-.2-.1-.1-.2-.2-.3-.4H1c-.3.1-.1 0-.3.2-.1 0-.2-.1-.4-.1.1-.4 0-.3.2-.5.1 0 .2.1.3.1-.1-.6-.1-.6.3-1h.1c-.1.2-.1.4-.2.7h.1c.2-.3.4-.6.7-.9.1.1.2.1.3.2 0 .7 0 .8.3 1.4l-.6.3c0 .5 0 .5.3.7.2 0 .3.1.5.1.2-.3.4-.6.7-.9-.5.1-.2.2-.7-.1.2-.1.3-.2.5-.4-.3-.4-.5-.4-.9-.6.1-.4.2-1.3.7-1.5-.2.6 0 1 .2 1.6h.2c0-.8 0-1.6.2-2.4.3 0 .5 0 .6-.6-.2-.2-.4-.4-.6-.7.3-.8.9-1 1.2-1.5.3-.7-.4-4.5-.7-4.7.4.3.5.3-.1.3.1-.6-.2-1.5.3-1.9 0 .6.2.6.4 1.2h.1c.2-.8.2-1.3-.2-1.9.5-.3 0-.4.2-.7 1.3-2.1 3.9-3.8 5.4-5.8.7-.9 1.8-1 2.9-1.6 1.3-.8 3.4-3 4.1-3.8.3.4.1.6.5.8 0 .1.1.1.1.2 0-.3.1-.6.1-.9.4.2.6 0 1 .2-.4.2-.2 1.4-.1 2h.1c.1-.8.2-2.4.6-2.7.1.2 0 .2.2.2.3-.4.2-1.1.4-1.6 3.3-1.9 6.7-3.9 10-5.8 1-.6 2.7-2.4 3.9-2.3 1 2.8 4 5.7 6.5 7.3 1 .5 2.1 1 3.2 1.5l5.4 5.7h.1c.9-1.2 1.8-2.4 2.8-3.6-.1-.2-.2-.3-.4-.5-2-1-3.5-3.5-5.1-5-.8-.4-1.7-.8-2.5-1.2.2.2.4.4.6.7-.2-.1-.5-.2-.8-.4.1.1.1.2.2.3.9.7 1.8 1.4 2.7 2-3.7-.8-6.7-3.9-9.3-5.9-.7-.5-1.4-1-2.1-1.4-.8-1.3-1.2-2.6-2.1-3.9-1.8-2.4-4.4-4.8-6-7.3v-1.2c-.4-.7-.7-1.4-1-2.1.1-.3.1-.6.2-.9-.2-.5-1.1-1-1.4-1.7-.2-1.2-.4-2.3-.6-3.4-.4-.8-1.3-1.8-1.5-2.7.1-.6.1-1.2.2-1.7-.1-.5-.6-1.7-.8-2.3.1-1.4.2-2.8.3-4.3-.2-1-.3-2-.5-3 .2-1 1.3-1.4 1.6-2.2.4-1.2-.3-2.4-.1-3.4.2-1 1.8-2 2.3-3 .1-.6.2-1.3.3-1.9.4-1.2 1-2.5 1.6-3.6.1 0 .1.1.2.1v.5c-.3.5-.6.8-.3 1.4.3 0 .6-.1 1-.1.7-.4.5-1.1 1-1.7 1.1-1.6 2.8-1.5 4.3-1.6.1-.8 1.3-1.2 1.9-1.4v.7c.3 0 .1-.1.4.2 0-.6-.1-.7.3-.9.2.2.1.1.5.1 0 .6 0 1.6.3 2 0-.6.3-2.3.5-2.5v-.2c.1.1.1.2.2.4.4-.4.4-1 .4-1.8 3.9-.1 5.6-2.7 10.8-2.2.1-.6.3-.6.7-1h.1l.1.1c-.5.8 1 3.3 1.7 3.6 1 .4 1.7 0 2.4-.4-.4-.6-.1-1.2.6-.9.2 1.8 1.7 3.3 3 4.1.4.1.9.2 1.4.4.6.6.5 1.8 1.2 2.3 1.8-.5 2 1.5 3.2 2.1l.9-1.2h.4c.3.2.6.4.9.7-.1.5-.1 1-.2 1.4.4.1.6.1.8.4 0 .1.1.2.1.3-.1 0-.1.1-.2.1-.8.2-1.1.1-1.4 0z"/><path fill="#FFF" d="M36.8 18.8c0 .1.1.1.1.2 0 0 0-.1-.1-.2zM37.6 18.9c-.1.7-.1.9-.1 1.7.1-.1.2-.1.3-.2 0-.4-.1-1-.2-1.5zM37 21.5c0 .3.1.6.1.9-.1-.3-.1-.6-.1-.9zM35.7 21.7v.4h.1c0-.1-.1-.3-.1-.4zM35.9 22.8c0 .2.1.5.1.8 0-.3-.1-.6-.1-.8zM30.9 23.3c-.4.4-.6.8-.5 1.5.1-.1.2-.2.4-.3l.6-1.2h-.5zM63.8 24.6c-.1.2-.2.5-.4.8.2.1.4.2.6.4.1-.3.2-.6.4-1-.2-.1-.4-.1-.6-.2zM29.6 25.6c.1 0 .2.1.3.1-.1-.1-.2-.1-.3-.1zM28.4 26.6c-.1.1-.2.2-.3.4l.4-.4h-.1zM27.5 27.6v1.7h.1c0-.5.1-1.6-.1-1.7zM66 29.1c-.1.2-.2.3-.4.5 0 .5.1.6.3.9H66.2l.4-.4c0-.6 0-.6-.3-.9-.1 0-.2-.1-.3-.1zM63.1 29.3c-.2.8.2 2 1 2.2-.3-.7-.6-1.4-1-2.2zM26.8 30.5c-.4.5-1.3 1.1-1.2 1.8.1.4.2.9.3 1.4-.1.3-.5.2-.3.8.1.1.1.2.2.3.2 0 .3-.1.5-.1.3-1.2 1.1-2.1 1.2-3.4-.2-.6-.2-.7-.7-.8zM65 32v.5c.3.2.4.4.9.5 0-.1.1-.1.1-.2-.2-.2-.3-.5-.5-.8H65zM65.4 38.6c1-.1 2-1.2 2.3-1.9 0-.2-.9-3.8-1.2-4.1-.2.1-.4.2-.6.4-.1 1.3.4 2.7.6 4.3-.3.5-.7.9-1.1 1.3 0-.2-.1-.4-.1-.6v1h.1v-.4zM59.6 33.4v1.2h.1c-.1-.3-.1-.7-.1-1.2zM58.6 37.4c-.2.9-.2 2.5.2 3.3h.1c0-.2.1-.3.1-.5v.2l.3 1.2c0-1.2 0-3.6-.7-4.2zM24.3 38.4c0 .6 0 1.1.3 1.4h.1c0-.1.1-.2.1-.3-.2-.3-.3-.7-.5-1.1zM64.4 38.9c0 .7.1 1.4.1 2.1-.6.5-1.3 1.4-1.5 2.2-.6-.1-.5.1-.9-.1-.1-.1-.1-.2-.2-.4-.6.4-1.4.4-2.4.3v-.2c-.1-.3-.1-.6-.2-1 0 .8.1 1.2-.2 1.5H59v-.2c-.1-.3-.1-.6-.2-.9h-.1v1c-.2-.1-.5-.2-.8-.3v-1.6h-.1v1.5c-3.6.2-6.5-.5-9.2-1.4.1.8.3 1 .8 1.4 0 .1-.1.1-.1.2h-.5c-.4-.2-.4-.6-.7-.8-1.4-1-2.8.2-3.8.3-.7-.1-1.4-.2-2.1-.4-.1.7-.1 1.4-.2 2.1.1.7.5 2 .3 3.1-.4 1.8-1.6 2.9-1.7 5.1h.1c0-.1.1-.1.1-.2.4-.4.5-.9.7-1.5h.4v.3c-1 1.9-1.7 8.7-2.7 9.5-.2-.2-.4-.3-.7-.5-.1.1-.2.1-.3.2v.1c.5 2.4 3 8.4 4.3 10.2 1.1.8 2.2 1.7 3.4 2.5 1.2 1.7 2.4 3.4 4.1 4.6 3.5 2.5 7.4 3.6 9.6-1-.2-.2-.3-.4-.5-.7-2.3 0-2.5-.8-4.1-1.4v-.4c1-.6 3 .2 4.5.4 1-1.2 2-1.4 2.3-3.4-.4.6-.9 1.1-1.4 1.6-2.5 1.8-5.5-.3-7.4-1.4-1-.5-3-.6-2.7-1.7h.1l6 .6c1.3-.1 2.6-1.1 4.1-.7-.1-.5-3.5-2.3-4.1-2.5-.8.1-1.6.2-2.4.4.1-.2.2-.4.4-.7 1.1-.4 2.6-1.4 3.6-1.2 0 .1.1.1.1.2-.2.5-.3.8-.2 1.2 1.7.6 3 1.3 4.5 2l1.2-1.2c-.1-5-4.6-9.8-.2-13.3.8-.6 1.1-1.6 2.2-2-.1-2.2-.2-4.4-.4-6.5-.1-.9.6-1.7.2-2.7 0 .1-.1.2-.1.4-.1-.6-.1-1.3-.2-1.9H65c0 .4-.1.7-.1 1h-.1c.2-1.1.1-2.8-.4-3.8zM65 39.8c0 .3.1.6.1 1 0-.3 0-.7-.1-1zM34.4 41.6c0 .2.1.5.1.8l.2-.2-.3-.6zM35.3 43.9v1.4c.1.2.2.4.4.6h.3l.1-.1c0-.8-.1-1.4-.4-1.9h-.4zM25.3 45.4c-.4 1.5.8 2.8 1.6 3.4 1.9-.8-.8-3-1.6-3.4zM36.6 47.6c-.1.4-.1 1 .1 1.2.1 0 .1-.1.2-.1v-1.2c-.1.1-.3.1-.3.1z"/><path d="M104.3 51.6c.9.2 2.4.5 3.4.8V52c1.7.3 4 1.8 4.1 3.8h-.1c-.6-.6-1.7-1.7-2.4-2-.9-.6-6.4.8-5-2.2z"/><path fill="#FFF" d="M32.5 52.8c-1.8 1.1-1.8-.1-3.3 2 .7 3.7 2.8 9.5 7.3 8.2.2-1 .4-1.9.7-2.9-.1-.5-.9-1.3-1-1.9-.7-2.6-.8-5.2-3.7-5.4z"/><path d="M32 54.3c.7.2 1 .2 1.6.3.7 1.7 2.3 3.7 2 6.2-1.5-.2-2.8-1.2-3.6-1.7-.3-.9-1-2.2-.6-3.2h.1c.1.6.6 1.4 1 1.8.4-.1.5 0 .8-.1.2-.2.1 0 .2-.3-.5-.4-1-.9-1.4-1.4.4.2.8.3 1.2.5 0-.3.1-.6.1-.9-.1-.2-.2-.3-.3-.5-.5-.1-1-.2-1.4-.3 0-.1-.1-.1-.1-.2.2 0 .3-.1.4-.2zM115.1 54.6V56c.2.7.9 1.7 1.2 2.6.4-.1.6 0 .9.1 0 .7.1 1.5.1 2.2.2-.4.3-.7.5-1-.1-.6-.2-1.3-.3-1.9-.4 0-.4 0-.8-.2-.3-1-.7-1.8-.9-3.1-.2 0-.4 0-.7-.1zM101.3 54.9h.3c.2.2.4.4.6.7 0-.2.1-.4.1-.6 0 .6.1 1.3.1 1.9.5-.3.7-.5 1.4-.6v.1c-.1.2-.2.3-.4.5h.2c1.9.8 5.4-.3 6.7 1.2-2.2-.2-4.5.3-7 .3.2 1.3 1.1 1.8.3 3.1-.3.2-.6.3-1 .5-.4-.1-1.8-.6-2-1 0-.2-.1-.3-.1-.5.2-.2.4-.3.7-.5.6.3 1.2.6 1.7 1v-.2c.2-.4 0-.6-.1-1-1.4-.4-2.5-.4-3.3-1.4.4-1.3 1.3-2.3 1.8-3.5zM106.4 54.9c1.6 0 2.6.6 3.2 1.6v.1c-1-.1-1.7-.4-2.5-.7-1-.3-1.8.3-2.7.5 0-.1.1-.2.1-.3.6-.4 1.4-.7 1.9-1.2z"/><path fill="#FFF" d="M66 55.5c-.7.6-1.6.8-2.2 1.4-.2.4-.3.8-.5 1.2.4.1.9.2 1.4.3.4-.2.8-.3 1-.6.2-.4.8-1.8.3-2.3z"/><path d="M48.6 55.6c.4.1.3.1.5.3 0 .1-.1.1-.1.2-.5.2-.9.5-1.4.4.2-.2.3-.4.5-.6.2-.1.3-.2.5-.3zM58.9 55.7h.4v.5c-.1.5-.2.7-.7.9 0-.1-.1-.1-.1-.2.1-.4.3-.8.4-1.2zM112.2 55.8c.1 0 .2.1.3.1 0 .2.1.4.1.7h-.1c-.1-.1-.1-.2-.2-.3 0-.2-.1-.4-.1-.5zM54.9 56.3c1.4-.1 2.4 0 2.8.9-.2.2-.4.5-.6.8-1-.1-2-.2-3.1-.4-2 .4-4.6.6-6.7.9 0-.1.1-.2.1-.3.1-.2.2-.4.4-.6 1.3-.4 6.4-.7 7.1-1.3zM110.1 56.4c.2 0 .3.1.5.1 0 .1.1.1.1.2-.1.1-.1.2-.2.3h-.1c-.1 0-.2-.1-.4-.1 0-.2.1-.4.1-.5zM97.1 56.9c.5.2.5.4.5 1-.2.4-3.1 3.3-2.9 1.4l1.5-1.2c-1.9-.2-2.5.9-3.6 1.8h-.3v-.1c.2-.5.2-.4.1-1 .7-.5 1.7-1.1 2.2-1.9 1 .2 2.1.4 2.5 0zM155.4 57.4c.6.2 2 .5 2.2 1-1.6.6-3.6.6-5.4.1 0-.1-.1-.1-.1-.2s.1-.1.1-.2c1 .2 2.5-.2 3.2-.7zM54.9 58.9c.1.1.2.1.4.2-1.5 2.6-3.9 2-6.5 1.4-.6-.2-1 0-1.4-.3v-.1c2.9-.3 5.6.3 7.5-1.2z"/><path fill="#FFF" d="M65.4 59.1c-.6.2-1.2.3-1.7.5.1.5 0 2.9-.2 3.2.4.7.8 1.4 1.2 2 .2-.1.4-.1.7-.2 1-2.3 1.7-2.8.6-5.5h-.6z"/><path d="M157.6 59.3c.4.4-.2 1 .2 1.7.1.2.5.3.7.6-.1.4-.1.9-.2 1.4-.1 0-.1.1-.2.1h-.4c-.4-.5-.7-.7-.9-1.4.4-.7.6-1.8.8-2.4zM32.7 60.1c.1.1.2.2.4.3-.4-.1-.2 0-.4-.3z"/><path fill="#FFF" d="M39.6 60.5l.3.3c-.1.5-.2.8-.6 1v-1c.1-.2.2-.3.3-.3z"/><path d="M104.5 60.7c1.2.4 2 1.4 2.9 2.1 1.2.6 2.3 1.3 3.4 1.9.1.5.2.6 0 1-.1 0-.1.1-.2.1s-.2-.1-.3-.1c-.3-.5-.3-.9-.4-1.4-1.8-.1-4.1-1.6-5.6-2.4 0-.3-.1-.6-.1-1 .2 0 .3-.1.3-.2zM161.1 60.8c.7.2 1.2.7 1.6 1.2 0 .4-.1.5-.2.8-1.1 0-1.6-.4-2-1.2.1-.5.3-.5.6-.8zM97.9 60.9c.6.1.6.2.9.6 0 .2-.1.3-.1.5.4-.1.5-.2.9 0 0 .1-.1.1-.1.2-.8.3-1.2.8-2.1 1-.1 0-.1-.1-.2-.1l-.3-.6c.1-.5.6-1.2 1-1.6zM118.8 62.5c-.3.5-.6 1-1 1.4-.4 1-.4 7 .2 7.4.3.1.6.2 1 .4 3.3-1.2 3.7-6.1 1.7-9.1-.6 0-1.3 0-1.9-.1zM156.1 62.5c.2 0 .4.1.6.1.2.6.3.6.1 1-1 .3-1.5 1-2.2 1.5-.4.1-.7.2-1 .3-1.4.9-2 3.6-2.4 5.5-.2 0-.4.1-.6.1-.1-.1-.1-.2-.2-.3-1.5-3.5 4.7-6.2 5.7-8.2z"/><path fill="#FFF" d="M39.6 62.8c.1.1.2.1.4.2-.1.1-.1.2-.2.4-.2-.3-.2-.2-.2-.6z"/><path d="M96.4 63.2c.5.3 1 .6 1.4.9-.3.8-2.8 2.9-3.4 3.8.1.8.2 1.7.3 2.5-.4-.1-.2.1-.6-.2l-.3-.3c-.8-2.1 2.4-4.4 2.6-6.7zM119.5 63.3c.2.1.4.1.7.2.7 1.7 1.4 5.8-1 6.5v-.3c.2-.5 1.3-2.4 1-2.6l-.3-.3c.1.9-.5 2.3-1.2 2.5v-.5c.3-.7 0-1.7-.3-2.6-.2-.8.4-.8.5-1.2.2-.5-.2-1.1-.3-1.6l.1-.1c.4.1.6 0 .8 0z"/><path fill="#FFF" d="M33.7 63.9c.4 1 1.3 2.2 2 2.8-.2-1.2-1-2.3-2-2.8z"/><path d="M119.3 64v0zM101.9 64.6c2.6.2 5.9.8 7 2.6.1.4 0 .5-.1.8-1.1.8-2.2 1.5-3.4 2.3-2.6 1.1-7.3 1.5-9.3 0 .1-3.6 3.3-4.3 5.8-5.7zM119.5 64.8c0 .1-.1.2-.1.3.2-.2.1 0 .2-.3h-.1zM148.8 65.4c.5.4.2 5.7.2 5.8h-.1l-.1-.1c-.3-1.7-.7-3.9 0-5.7z"/><path fill="#FFF" d="M98.4 70.2c.1-1 .6-1.2 1.2-1.7 1.3-1.3 3.6-2 6-1 .6.2 1 .9 1.4.7.2-.2.5-.3.8-.5-2.6-3.6-9.9-1.7-10.6 2.5h1.2z"/><path d="M156.8 66c5.2 0 7.3 1 10.1 3.2.7.6.5 2 1.4 2.3l.3-.3.3.3c.1.2.1.5.2.8-.5.6-3.3 2.7-4.1 2.9-1.8.5-3.4-.4-4.9-.7-3.7-.8-7.7-.4-8.2-4.3 1.5-1.2 2.8-2.8 4.1-4.1.3-.1.5-.1.8-.1z"/><path fill="#FFF" d="M52 67.3c.6 0 .7 0 1 .3-.1.1-.2.2-.3.4-1 .2-1.9.6-2.7 1-.1 1.3.2 2.7-.3 3.9-.1-.1-.2-.1-.3-.2-.5-1.3-1.8-3.7-.1-4.7 1-.3 1.9-.5 2.7-.7z"/><path d="M47.9 67.4c.2.1.3.1.5.2v.4l-.4.4c-.1-.1-.2-.1-.3-.2v-.5c.1-.1.2-.2.2-.3z"/><path fill="#FFF" d="M156.9 67.8c-.6.4-1.1.5-2 .8-.4 1.1-1.1 1.1-1.2 2.5h.1l.9-.9c.6 0 1-.2 1.2-.5-.4.1-.5.1-.8-.1h.2c.5-.7 1.4-.4 2.5-.5 4.6-.5 5.7 1.2 8 3.2.1-.1.2-.2.4-.3v-.1c-.4-.7-2.1-3.2-2.7-3.4-.6-.2-1.2 0-1.7-.1-.1-.2-.1-.3-.2-.5-1.6 0-3.2-.1-4.7-.1z"/><path d="M169.1 68.1c.1.1.1.2.2.3-.1-.1-.2-.2-.2-.3zM114.8 69.2c.4.1.2 0 .4.3 0 .4-.1.7-.1 1-.1.1-.1.2-.2.3-.1 0-.1-.1-.2-.1.1-.5.1-1 .1-1.5z"/><path fill="#FFF" d="M61 70.7c0 .1-.1.1-.1.2.3.1.2 0 .4-.1v-.1H61zM53 70.8c.7.6 1.5 1.1 2.2 1.6.4-.1.4-.4.6-.5.4-.2.4.2.7.3 1.4.2 2.4-.1 3.4-.6 0-.6 0-.5-.4-.7-.4.6-2.8-.2-3.6.4-.4-.2-.6-.4-1.2-.5-.5 1.1-.7.2-1.7 0zM60.4 70.9c-.2.2-.2.1-.3.6h.1l.2-.2c.2-.2.1 0 .2-.4h-.2z"/><path d="M106.7 71.1h.3c0 .1.1.1.1.2-.6 1-1 2.6-2.2 3.3-1.8-.2-3.6-.3-5.5-.5 0-.7-.7-.9-1.2-1.4.1-.1.1-.2.2-.4 2.2 1.5 6.8.2 8.3-1.2zM170.4 71.2l.4.4V73c-.6.4-1.2.9-1.8 1.4.4-.5.7-1 1-1.5.3-.8.1-1.3.4-1.7zM116.4 71.8c-.3.6-.6 1.1-.9 1.6.5-.3 1.2-1 .9-1.6zM116.4 73l-1.5 2.4c.5-.4 1.8-1.4 1.5-2.4zM119.5 73.1c0 .1-.1.2-.1.3.2-.2.2-.1.1-.3zM179.6 73.3v1.2c.1 0 .1-.1.2-.1-.1-.4-.2-.7-.2-1.1z"/><path fill="#FFF" d="M39.9 74.3c.1.1.2.1.3.2-.1 0-.2-.1-.3-.2zM40.3 74.7h.2-.2z"/><path d="M154.9 75.3c3 0 5.2 1 7.3 2 0 .1-.1.1-.1.2h-.2c-.8.4-1.9.3-2.7.1 0 .4.2.1-.2.4-.8.3-4.4-1.4-4.8-1.9.2-.3.4-.5.7-.8z"/><path fill="#FFF" d="M113.1 76.9c-.1.2-.2.4-.4.6.1 0 .1-.1.2-.1.1-.2.1-.4.2-.5zM171.5 77.4c-1.4 1.8-3 3.3-4.1 5.5.9-.5 4.6-3.9 4.1-5.5zM120.8 78.3c.1.1.2.1.3.2-.1-.1-.2-.1-.3-.2zM59.2 78.5c0 .1-.1.1-.1.2l.2-.2h-.1zM121.1 78.5l3 2.1c-1.1-.3-2.4-1.3-3-2.1zM40.2 79c1 1.2 2.1 2.4 3.2 3.6-.8-1.5-1.8-2.6-3.2-3.6zM42.1 79.4l.9.9c-.3-.3-.6-.7-.9-.9zM50.8 79.5l1.2 1.2.4-.4c.1 0 .1-.1.2-.1v-.1l-1.8-.6zM51.3 80.4l.7.7c-.3-.2-.5-.5-.7-.7zM93.7 80.8v0zM19.4 81c-.1.7-.1.8-.1 1.6.1 0 .2-.1.3-.1 0-.5-.1-1-.2-1.5zM94.5 81.1c-.2.5-.2 1-.1 1.5.1 0 .1-.1.2-.1-.1-.5-.1-.9-.1-1.4zM114 81.3c-1 .4-1.9.8-2.9 1.2-1 .8-2 1.5-3 2.3 1.2 1.9 3.1 3.6 5 4.8h.1c.8-2.5 3.7-5.2 3.3-8-.9-.1-1.7-.2-2.5-.3zM43.5 81.5c.4.6.8 1.2 1.2 1.7-.4-.6-.7-1.3-1.2-1.7zM18.7 81.9c0 .1.1.1.1.2 0-.1 0-.2-.1-.2zM58 82.2c-.4.3-.8.4-1 1h.1l.5-.5c.2-.2.4-.3.7-.5H58zM97 82.2c-.2 1.6-.7 4.1 0 5.5.8.6 1.7 1.2 2.5 1.8.6-1.3 3.1-2.8 2.5-4.5-2-.5-3.3-2.1-5-2.8zM58.3 82.9c-.4.3-.8.6-1.2 1 0 1.6-.1 2.6-.5 3.6l.6 3.6h.1c.3-2.6.7-5.4 1-8.2zM82.1 82.9h.2-.2zM45.8 83.3c.7 1.1 1.4 2.2 2.1 3.4.1 0 .1-.1.2-.1.2-.3.3-.6.5-.9-.9-.8-1.9-1.6-2.8-2.4zM108 83.5l-.6.3v.1h.1c.2-.1.4-.2.7-.4h-.2zM18.7 83.6c0 .3.1.6.1.9 0-.3 0-.6-.1-.9zM93.8 83.7c0 .2.1.5.1.8 0-.3 0-.5-.1-.8zM17.5 83.8v.3c0-.1.1-.2 0-.3zM92.6 83.9v.3c0-.1.1-.2 0-.3zM108.3 83.9l-.5.5c.1-.2.3-.4.5-.5zM178.2 84.1c-.2.6-.2 1.9.4 2.1V85c-.1-.4-.1-.7-.4-.9zM175.4 84.6c-.3.6-.6 1.1-.9 1.6.4-.1 1.8-1.1.9-1.6z"/><path fill="#FFF" d="M109.6 118.7c0 .2.1.3.1.5.1.1.1.2.2.3 1-.4 2.8.3 3.9.5 0 .1-.1.1-.1.2-1.4-.2-2.7-.4-4.1-.6v.1c0 .1.1.2.1.4 1.9.2 3.8.3 5.7.5 0-.6.1-1.2.1-1.7-.1-.1-.2-.1-.4-.2.5-.1.3.1.5-.3-.6 0-1.7-.1-2.1-.4.7 0 1.4.1 2.1.1.4-4.4.8-8.7 1.2-13.1.1-2.6.2-5.3.3-7.9.6-3.6.9-8.9.1-12.3h-.1-.1c-.5 2-1.9 5-3.3 6.3.5-1 1-2.1 1.5-3.2-.1 0-.1.1-.2.1-.6 1-1.1 1.9-1.6 2.9-.2 0-.4-.1-.6-.1-1.2-.8-2.3-1.7-3.4-2.5 1 1.2 2 2.4 3.1 3.6-1.4-1-2.5-3.1-4.1-3.8-.4.5-.7 1-1 1.4-.7 2.2 1 4.9.2 6.9-.1-.7-.2-1.5-.4-2.2h-.1c.1 7.7 1.1 16.2 2.2 23.3 1.2.1 2.4.2 3.6.4-.1 0-.2.1-.4.1l-3.3-.3c.1.2.1.5.2.8 1 0 3 0 3.6.6-1.2 0-1.9-.3-3.4-.4zM174.9 84.8c-.4.7-1.7.8-2.4 1.2-2.3 2.2-4.7 4.4-7 6.5l2 2c1.7-2.4 4-4.9 6-7.1.4-.4 1.7-2.2 1.4-2.6zM17.7 84.8c0 .2.1.4.1.7-.1-.2-.1-.4-.1-.7zM92.8 85c0 .2.1.3.1.5-.1-.1-.1-.3-.1-.5zM176.6 86c-.1.2-.2.3-.3.5l.1.1c.1-.2.2-.4.2-.6.1 0 0 0 0 0zM136.3 86.6c0 .4 0 .5.2.7h.1c0-.2-.1-.4-.1-.7h-.2zM51.7 86.8c-.5 1.2-1 2.5-1.5 3.8.8 1.5 1.5 3 2.3 4.4h.2c-.2-2.6.3-5 .3-7.6-.5-.2-.9-.4-1.3-.6zM184.4 88.2c0 .2.1.4.1.6 0-.2-.1-.4-.1-.6zM153.1 88.6c-.2.1-.5.2-.8.3.5 2.2 1.3 4.6 2.2 6.5 1.1-.7 2.2-1.4 3.4-2-1.6-1.6-3.1-3.2-4.8-4.8.1 0 0 0 0 0z"/><path fill="#FFF" d="M175.4 88.8c-1.2 1.7-5.7 8.1-7.2 8.9 1.6-2.2 3.2-4.4 4.8-6.5-1.3 1-1.9 3-3.4 3.8.2-.4.4-.7.7-1-1.2.9-1.7 2.8-3.4 3.1.1-1.2-1.4-2.3-2.2-2.9h-.1c-.2.8-.8.8-1 1.5.2.7.3 1.4.5 2 .1 1.8.2 3.6.3 5.5 3.8-2.7 6.6-6.3 9.1-10.4.5-1.5 1.3-2.7 1.9-4zM96.8 117.3c.4 0 .6 0 .9.2h-.9c-.1 2.1 1.4 1 2.7 1.4v.1c-.4 0-.8.1-1.2.1v.1c1 .1 2.8.4 3.3-.2-.6 0-1.4.1-1.7-.2h1.8v-.8l-.1-.1c-.2 0-.4-.1-.7-.1h.8c0-.3.1-.6.1-.9l-.1-.1c-.7-.1-1.5-.1-2.2-.2.8 0 1.5.1 2.3.1.4-6.5.7-13 1-19.5-.2-2.4-.3-4.8-.5-7.2-.1.1-.2.2-.4.3.2-.5.4-.6.4-1.4-.1 0-.1.1-.2.1-.9 2-2.9 3.4-4.1 5.1-.2 2.8-.5 5.7-.8 8.6-.2 2 .6 4.8-.2 6.5h-.1c-.1-.6 0-.2-.3-.5.1.2-.1.8.2 1.2h.1c0-.4-.1-.1.1-.4 0 1.6-1 5.7.1 7h.6-.2c-.4.4-.6.2-.7.8z"/><path fill="#FFF" d="M174.3 89.3c-.1.1-.1.2-.2.3.1-.1.2-.3.2-.3.1 0 0 0 0 0zM183.3 89.5v.4h.1c0-.2 0-.3-.1-.4zM96.4 89.7c.1.1.1.2.2.3-.1-.3 0-.2-.2-.3zM174 89.7c0 .1-.1.1-.1.2l.2-.2h-.1zM96.9 89.9c.2.4 0 .1.3.3-.1-.1-.1-.2-.3-.3.1 0 .1 0 0 0zM98.2 90.1c.4.3.7.6 1 .9v-.1c-.2-.2-.6-.5-1-.8zM101.8 90.3c0 .2 0 .2-.3.5.1-.1.2-.3.3-.5zM97.8 90.4c0 .8.1 1.6.1 2.4.1 0 .1-.1.2-.1.4-.6.7-1.1 1-1.6-.4-.2-.9-.4-1.3-.7zM101.3 90.9c0 .2 0 .2-.2.4.1-.1.2-.3.2-.4zM101 91.4c0 .2 0 .2-.2.4 0-.1.1-.3.2-.4zM4.1 91.7h.2c-.1.3 0 .2-.3.4.1-.2.1-.3.1-.4zM4.4 91.8h0zM100.6 91.9c0 .2 0 .2-.2.4 0-.2.1-.3.2-.4z"/><path d="M3.7 92.1H4v.1c-.1 0-.2.1-.4.1.1-.1.1-.2.1-.2z"/><path fill="#FFF" d="M100.2 92.3c0 .2 0 .2-.2.4 0-.1.1-.2.2-.4z"/><path d="M4 92.5c.1.1.2.2.4.3l-.3.3H4v-.5-.1z"/><path fill="#FFF" d="M98.6 92.6c-.2.4-.5.8-.8 1.2h.1c.1 0 .1-.1.2-.1.2-.3.8-1 .5-1.1z"/><path d="M3.6 93.8c.1.3.2.6.3 1-.1 0-.1.1-.2.1h-.1v-1.1zM3.3 94.7c0 .1.1.1.1.2-.1-.1-.1-.2-.1-.2zM3.6 95l.2.2c-.1 0-.1-.1-.2-.2z"/><path fill="#FFF" d="M158.9 95.7c-.8 1-2.7 1.8-3.1 3.1.7 1.3 1.1 4.1 2.1 5.2.1-1.3 1.3-7.9 1-8.3zM157.5 96c-.7.4-1.5.9-2.2 1.4v.2h.1c.3-.2 2.4-1.4 2.1-1.6zM97.2 98.5c-.2.3-.2.2-.2.4 0 .3-.1.1.1.4h.1v-.8zM169.4 98.9c-.6.6-1.1 1.2-1.6 1.8.5-.3 1.7-1.2 1.6-1.8zM5.2 101.6v.3h.2c-.2-.3 0-.1-.2-.3zM167.1 101.6c-.8.9-2.6 1.6-2.7 3 .8-1 1.8-1.9 2.7-3 0 .1 0 0 0 0zM158.5 102.3c-.1 1.4-.7 2.8.2 3.8 0-1 .1-1.9.1-2.9-.1.4-.2.9-.3 1.4v-2.3zM167.2 102.7c-.5.6-1 1.2-1.5 1.7.3-.3 1.7-1.3 1.5-1.7zM190.8 102.9c0 .3-.1.1.1.4h.1c0-.1.1-.2.1-.3v-.1h-.3zM4.4 104.4l-.3.3c.1.4 0 .3.3.5.3.1.3 0 .6-.1v-.1c-.1-.2-.1-.3-.2-.5-.1 0-.2-.1-.4-.1z"/><path d="M1.6 106.5h.2c-.2.2 0 .1-.3.2 0-.1.1-.1.1-.2z"/><path fill="#FFF" d="M97.8 106.8h.2l-.2.2v-.2zM151.3 106.8c0 .4.1.8.1 1.2h.1v-.9c-.1-.1-.2-.2-.2-.3zM184.4 106.9c-.2.6.1 1.1.2 1.7.2.1.3.1.5.2-.1-.6-.2-1.3-.4-1.9h-.3z"/><path d="M2.9 107.1c.1 0 .1.1.2.1 0-.1-.1-.1-.2-.1z"/><path fill="#FFF" d="M183.1 107.9c0 .1-.1.1-.1.2.3-.1.1 0 .3-.2h-.2z"/><path d="M2.7 109.2h.2l-.2.2v-.2zM2.8 109.7h.3c0 .4.1.7.1 1h-.1c0-.1-.1-.1-.1-.2-.1-.2-.2-.5-.2-.8z"/><path fill="#FFF" d="M190.8 110.4c.1.2.2.4.4.6.1 0 .1-.1.2-.1v-.1c0-.1-.1-.2-.1-.3-.1-.1-.3-.1-.5-.1zM150.4 110.8c-.3 1 0 2.3.1 3.3.1-.2.1-.4.2-.6h.1c.1.5.1 1 .2 1.5h.1c0-1.4 0-3.5-.7-4.2z"/><path d="M3.1 110.9v.6H3v-.1c.1-.2.1-.3.1-.5z"/><path fill="#FFF" d="M157.1 111.5c0 .3.1.6.1.9h.1v-.6c-.1-.1-.2-.2-.2-.3z"/><path d="M3.1 111.7h.2-.2z"/><path fill="#FFF" d="M186.7 111.9c.1 0 .1.1.2.1-.1 0-.1-.1-.2-.1zM156.2 112.2c0 .7.1 1.5.1 2.2-.8.5-1 1.8-1.9 2.1-.2 0 0-.1-.4.2-.1-.2-.2-.4-.4-.6-.2.1-2.2 0-2.4-.5.7-.1 1.3-.2 1.5-.8h-.3c-.7-.2-1.4.2-1.9.6 0 .7.1 1.4.1 2h.1c0-.6.1-1.2.1-1.8.1 0 .1.1.2.1 0 .1.1.1.1.2-.2.3-.2.6-.2 1 .4.2.1 0 .3.3.2-.2.2-.3.6-.2l-.2.2c-.2.4 0 .3-.4.3-.1 2.1-1.6 6.9-.2 9.1.8 0 1.6.1 2.4.1-.1 1-.2 1.9.2 2.6 1.2 0 1.6 0 2.4-.4v-.1c-.2-.4.1-8.4.1-8.4v.6c.1 0 .1-.1.2-.1 0-.5 0-1 .3-1.2v.2c.2.4.1.6.4.8 0-.6-.1-1.1-.1-1.6h-.1c0 .2-.1.3-.1.5v-.2c-.1-.3-.1-.6-.2-1h.4c0 .2.1.4.1.6v-.3c.5-.2.4-2.8-.1-3.4 0 .2-.1.3-.1.5 0-.6-.1-1.3-.1-1.9 0 .2-.1.5-.1.8 0-1-.1-1.9-.4-2.5zM58.5 112.4c-.1.1-.1.2-.2.3.2.6.3 1.3.5 1.9.1 0 .1.1.2.1s.1-.1.2-.1c.2-.7.5-1.1.6-2-.5-.1-.9-.2-1.3-.2zM66.7 115.2c.1-1.8-.3-2.2-1.4-2.9-.5 0-1 .1-1.5.1l-.3.6c-.6-.4-1.5-.8-2 0-.2.2-.2.4-.2.8h.1c1-.2 1.9-.4 2.9-.6.5.6 1.4 1.5 2 2h.4zM156.9 113.2c0 .4.1.7.1 1-.1-.4-.1-.7-.1-1zM50.5 114c0 .6.1.8.7 1l.4-.4v-.5c-.4 0-.7-.1-1.1-.1zM192.8 114v.2c.1-.2 0 0 0-.2zM154.5 114.5c-.1 0-.1.1-.2.1.2.5.3.6.9.7.1-.1.2-.2.3-.4v-.3c-.4 0-.7-.1-1-.1zM194.7 114.5c0 .1-.1.2-.1.4.2-.1.3-.2.5-.3v-.1h-.4zM149.6 114.9c-.1.4-.1 1.2.1 1.5 0-.5 0-1-.1-1.5zM196.9 114.9c.2.2.1 0 .2.4h-.1c0-.2-.1-.3-.1-.4zM157.1 115.1c0 .2.1.5.1.8.1 0 .1.1.2.1h.1c.3-.3.5-.4.8-.7l-.3-.3c-.2.2-.2.1-.3.5-.2-.4 0-.3-.6-.4zM53.8 116.7c0-.6-.1-1.1-.1-1.6h-.4c-.2.2-.3.4-.5.6.2.4.3.7.5 1h.5zM159 115.2v.3c.4-.1.3-.1.5-.3h-.5zM195.9 115.2c0 .1.1.1.1.2 0 0 .1 0-.1-.2zM65 115.4c0 .3-.1.2.2.5 0-.5 0-.3-.2-.5zM156.7 115.7c.1.2.2.3 0 .7v-.7zM42.5 116.2c-.1.5-.1.9.1 1.4 0-.5 0-.9-.1-1.4zM149.9 116.5c-.2.1-.4.2-.6.4.1.1.1.2.2.4.2-.2.4-.3.6-.5-.1-.3 0-.1-.2-.3zM152.8 116.7h.2-.2zM164.6 116.7c-.7.4-2.3-.1-2.9.5l.2.2c1.1.4 2.5.2 3.2-.5l-.2-.2h-.3z"/><path d="M152.5 116.8h.3c0 .1-.1.2-.1.3-.4.2-.1.2-.5.1 0 .2-.1.4-.1.7-.1-.3-.1-.6-.2-.9v-.1c.2 0 .4 0 .6-.1z"/><path fill="#FFF" d="M157.1 116.8c0 .1.1.2.1.3h-.1v-.3zM64.9 117c-.1.1-.1.1 0 0 .5.6 1.1 1.2 1.6 1.8v-.4c-.3-.4-.4-.8-.6-1.4h-1zM161 117.2c-.1.1-.1.2-.2.3 0 .1.1.1.1.2h.3c.1-.1.2-.1.3-.2-.1-.1-.1-.2-.2-.3h-.3zM156.9 117.3c0 .1.1.2.1.3h-.1v-.3zM196.5 117.4c0 .2.1.3.1.5.1 0 .1-.1.2-.1v-.1l-.3-.3zM149.9 117.6c0 .6.1 1.3.1 1.9l.3.3c0-.8.1-1.8-.4-2.2.1 0 .1 0 0 0zM159.1 117.6l-1.2.3v.1c.1.1.1.2.2.3.3 0 .6-.1.9-.1.2-.1.3-.2.5-.3-.1-.1-.1-.2-.2-.3h-.2zM113.1 118h.3-.3zM112.1 118.1h.3-.3zM113.3 118.3h.3v.1c-.1 0-.2.1-.4.1 0 0 0-.1.1-.2zM113.8 118.3c.4 0 .5 0 .7.3-.3-.1-.5-.1-.7-.3zM80.1 118.6c-.4.3-.7.4-.9 1 .4-.2.8-.3 1.2-.5-.1-.4-.1-.3-.3-.5zM55.2 118.7c-.1 0-.2.1-.4.1.1.1.1.2.2.4.2-.2.4-.3.6-.5h-.4zM51.9 119c-.1.1-.2.2-.3.4h.2c.2.1.3.2.5.4-.2-.3-.3-.5-.4-.8zM156.1 119v0zM97.3 119.1c.2.2.2.1.7.1-.2 0-.5-.1-.7-.1zM156.3 119.1c0 .1.1.2.1.3h-.1v-.3zM59.9 119.4c0 .2-.1.4-.1.7.1 0 .1.1.2.1l.4-.4c-.1-.1-.2-.2-.3-.4h-.2zM97.2 119.7c-.1 0-.1.1-.2.1v.2c.4 0 .8.1 1.2.1-.6 0-1-.1-1.2.3h.2c.8 0 1.6.1 2.4.1-.1.1-.1.2-.2.3.7.1 1.8.4 2.1-.4-.8 0-2.4 0-2.9-.4h2.1c-1.1-.3-2.4-.3-3.5-.3zM79.8 120l-.3.6c.2 0 .4-.1.7-.1-.2-.4-.1-.4-.4-.5zM41.6 120.2c-.2.9-.2 2.5.2 3.3.2-.2 0-.4.3-.3.1.4.1.8.2 1.2 0-1.3-.1-3.5-.7-4.2zM59.3 120.7c0-.2-.1-.3-.1-.5l-.4.4v.1h.5zM98.6 120.3h.2-.2zM180 120.4c-.8.1-1.7.2-2.5.4.4 0 .8.1 1.2.1-.1 0-.2.1-.3.1-.6 0-1.3.1-1.9.1.1.1.2.1.4.2.8 0 1.6.1 2.4.1-.3 0-.6.1-1 .1h.2c.7.3 6.1.1 6.5-.2-.4 0-.3.1-.6-.1.6 0 1.2 0 1.5-.3-1-.8-3.7-.6-5.9-.5zM188.6 120.4c.1 0 .2.1.3.1-.1-.1-.2-.1-.3-.1zM182.9 120.5h.3-.3zM99.7 120.5h.2-.2zM176.4 120.7c.1 0 .2.1.3.1-.1-.1-.2-.1-.3-.1zM177.1 120.7c.1 0 .2.1.4.1-.2-.1-.3-.1-.4-.1zM171.9 120.7c.1 0 .1.1.2.1-.1 0-.2 0-.2-.1zM48.3 120.9c0 .4.1.8.1 1.2-.1-.5-.1-.9-.1-1.2zM172.8 120.9h1-1zM174.1 120.9c.1 0 .1.1.2.1-.1-.1-.1-.1-.2-.1zM185.3 120.9h.2-.2zM186.5 120.9h1.8-1.8zM174.8 120.9c.1 0 .2.1.3.1-.1 0-.2 0-.3-.1zM5.7 121H6h-.3zM110 121c0 .2.1.4.1.7.5 0 1 .1 1.5.1v-.2c-.5-.2-1.1-.4-1.6-.6zM187.3 121c.1 0 .1.1.2.1-.1 0-.2 0-.2-.1zM192.2 121h.4v.1c-.2 0-.3 0-.4-.1zM192.7 121h.2-.2zM193.4 121h0zM98.6 121.1h.5-.5zM99.1 121.1c.2.1.3.1.5.2-.2-.1-.1-.1-.5-.2zM192.9 121.1h.2-.2zM100.6 121.2c.2.2.4.2.8.1-.3 0-.6 0-.8-.1zM171.9 121.2c.1 0 .2.1.3.1-.1 0-.2 0-.3-.1zM172.3 121.2c.1 0 .1.1.2.1-.1 0-.2 0-.2-.1zM173.2 121.2c.2.2.3.2.6.1-.3 0-.5 0-.6-.1z"/><path fill="#FFF" d="M185.3 121.2c.1.1.2.1.3.2-.1-.1-.3-.1-.3-.2zM187.7 121.2c-.2.1-.4.1-.6.2.3 0 .6-.1 1-.1-.1 0-.2 0-.4-.1zM174.5 121.3c.1 0 .2.1.3.1-.1 0-.2-.1-.3-.1zM185.7 121.3c.1 0 .2.1.3.1-.2 0-.3-.1-.3-.1zM186.5 121.3c.1 0 .2.1.3.1-.1 0-.2-.1-.3-.1zM188.3 121.3c.2.2.2.2.6.2-.2-.2-.2-.1-.6-.2zM13.2 121.4c-.6.1-1.1.1-1.6.2.1.1.2.1.3.2-.4 0-.9.1-1.4.1h.6l.2.2c-.5 0-1 .1-1.4.1.1 0 .1.1.2.1.4.2.3.1.8 0-.1.1-.1.2-.2.3 1.2 0 2.4.1 3.6.1-1.4 0-2.7.1-4.1.1 1.8 0 7.7.3 8.3-.1-.2-.1-.3-.1-.5-.2.6-.1 1.1-.2 1.6-.3-.1 0-.2-.1-.4-.1.2 0 .4-.1.6-.1v-.1c-2.2-.2-4.4-.3-6.6-.5zM175.6 121.4c.1 0 .2.1.3.1-.2 0-.3 0-.3-.1zM175.9 121.4c.2.1.4.1.6.2-.2-.1-.2-.1-.6-.2zM177.6 121.4c-.1 0-.1.1-.2.1.2.1 0 .1.2-.1zM110.3 121.5h.3-.3zM143.5 121.5v1.2c.1 0 .1-.1.2-.1-.1-.4-.1-.7-.2-1.1zM190.2 121.5c.4 0 .8.1 1.2.1-.7 0-.9.1-1.2-.1zM192.3 121.5h.2-.2zM192.8 121.5h.4v.1c-.2 0-.3-.1-.4-.1zM193.5 121.5h.3-.3zM16.1 121.6h.3-.3zM97.1 121.6c.1 0 .1.1.2.1-.1 0-.1 0-.2-.1zM187.7 121.6c0 .1-.1.1-.1.2.2 0 .5-.1.8-.1v-.1h-.7zM44 162.2c0 .6-.4 1.3-.7 1.6-.5-.2-.4-.1-.9.2-.4 1-.7 3.1-.3 4.1 1.2.4 2.4.9 3.6 1.4v.1c-1.2-.2-2.8-1.4-3.9-1 0 1.7-.7 5.8.3 7.5 1.8 0 3.5-.1 5.3-.1l-.3-.3c-.3.1-.6.1-.8-.1 1 0 2.1-.1 3.2-.1 0 0 0-1.4.2-1.6.2-.1.4-.2.7-.4-.2 0-.5-.1-.8-.1 0-1.1-.2-1.2 0-2.2-.4-.2-.8-.5-1.2-.8.4.1.8.4 1 .1.4-.8.3-2.4.8-2.9.3.2.6.3 1 .5.1 0 .1-.1.2-.1v-.1c-.4-.4-.8-.6-1.2-1 .4 0 .7.1 1 .1.3-.8.6-1.4.8-2.3-.3-.5-.2-1.2-.9-1.2H51c0-1.4.5-3.5.4-4.8-.1-1.4-1.6-2.5-.8-3.6-.2-.5-.7-1-1-1.4 0-.7.1-.9.6-1.2-.4-1.7-1.8-2-3.4-2.3 0-.2-.1-.3-.1-.5.4-.4 1.1-.9 1.6-1.2.3.2.6.5.9.8.4-.1.8-.2 1.2-.4.1.4 0 .5.6.6.1-.5.2-.5.5-.8-.8-1.4-.1-.8-.4-1.8-.2-.9-1.1-1.8-1.4-2.9-.4-2.3.7-4.9-.2-6.9.3-.7 1-.8 1.2-1.4-1.9-.8-.6-3.9-1-5.4-.2-.2-.3-.5-.5-.8.1-1.4 1.2-3.1-.9-3.4-.1-.5-.1-1-.2-1.4H48c0 .2-.1.4-.1.7 0-1.2-.1-2.8-.6-3.6.1 3-.8 2.4-1.4 4.3-.6 0-.2-.1-.8.1-.1-.2-.2-.3-.3-.5-.6.5-1.2.5-2.4.5-.1-.5-.1-1-.2-1.4 0 .5.1 1 .1 1.4-.1 0-.2.1-.4.1 0-.4-.1-.7-.1-1-.1 0-.1.1-.2.1 0 1 .1 1.4-.3 2-.3-.2-.2-.2-.4.2.4 1.6.3 3 .6 4.5-.2-.1-.3-.1-.5-.2v.8c.1 0 .2-.1.4-.1 0 2.2-1.2 6.4-.5 8.9l.3.6c.9 0 1.8-.1 2.1.1v.1c-.7.2-1 .6-1.4 1 0 .2.1.3.1.5.2.3.4.2.6.6-.2.2-.1.2-.5.3-.2.3-.2.2-.5.4.6 2-.7 5.4-.1 7.4.4.6 1 .4 1.4 1v.7h-.4c-.1-.5-.1-.5-.4-.8-.2 0-.4.1-.6.1 0 2.5 0 4.4.6 6.3.3.9-.4 1.5-.2 1.8 0 .2.6 1 .8 1 .5-.2.9-.3 1.3-.4zM190.4 121.7c.1 0 .2.1.4.1v.1h-.6c0-.1.1-.1.2-.2zM85.4 121.8c.1.4 0 .2.2.4.7.2 1.4.4 2 .6-.1-.1-.2-.2-.3-.4-.1-.1-.1-.2-.2-.4-.6.1-1.1 0-1.7-.2zM156.1 121.8c0 .4 0 .5.2.7v-.4c-.1-.1-.2-.2-.2-.3zM174.1 121.8h.6-.6zM174.9 121.8c.1 0 .2.1.3.1-.1 0-.2-.1-.3-.1zM98.2 121.9c.1 0 .1.1.2.1-.1 0-.2-.1-.2-.1zM98.6 121.9c.1 0 .2.1.4.1-.2 0-.3-.1-.4-.1zM99.9 121.9c.4.4.6.1.7 0h-.7zM176 121.9c.1 0 .2.1.3.1-.1 0-.2-.1-.3-.1zM176.6 121.9c.4.2 1.6.3 2.1.1-.7 0-1.4-.1-2.1-.1zM187.5 121.9c.1 0 .2.1.4.1-.2 0-.3-.1-.4-.1zM178.9 122c.1 0 .2.1.3.1-.1 0-.2-.1-.3-.1zM179.6 122c0 .1.1.1.1.2-.1-.1.1-.1-.1-.2zM180 122c0 .1-.1.1-.1.2.2 0 .5-.1.8-.1-.3 0-.5-.1-.7-.1zM77.9 123.1c0-.2-.1-.4-.1-.6-1.1.1-1.7.1-2.4-.4-.1 0-.1.1-.2.1.1.6.4.8.8 1 .7-.1.9-.2 1.9-.1zM180.9 122.1c.1 0 .2.1.3.1-.2-.1-.3-.1-.3-.1zM186.6 122.2c.2.1.5.1.8.2-.3-.2-.3-.2-.8-.2zM187.6 122.2v0zM14.3 122.6h.3-.3zM14.7 122.6c.5 0 1 .1 1.4.1-.4-.1-.9-.1-1.4-.1zM48 122.6c0 .4.1.7.1 1 0-.3-.1-.7-.1-1zM197.1 122.6c.1.1.2.1.4.2-.1-.1-.3-.2-.4-.2zM8.4 122.7c.1 0 .2.1.3.1-.1-.1-.3-.1-.3-.1zM197.7 122.9c0 .1.1.1.1.2-.1-.1.1-.1-.1-.2z"/><path d="M3.3 122.9h.2-.2z"/><path fill="#FFF" d="M150.2 123.1v.3c.1-.1.1-.2 0-.3.1 0 .1 0 0 0z"/><path d="M.7 123.3l.2.2-.2-.2z"/><path fill="#FFF" d="M76 123.3c.1.1.2.1.4.2-.1 0-.3-.1-.4-.2z"/><path d="M2.5 123.4c.1 0 .2.1.4.1-.1 0-.1.1-.2.1-.1.1-.2.1-.3.2 0-.1-.1-.2-.1-.3 0 0 .1 0 .2-.1zM.9 123.5c.2.2 0 .1.1.4.4.2.5 0 .5.4.1 0 .1.1.2.1-.6.3-.8.3-1.4.3v-.3c.5.1.6.2 1-.2H.1v-.1c.2-.2.5-.2.8-.6zM.4 123.7h.2-.2zM151.3 124.1h.2l-.2.2v-.2z"/><path fill="#FFF" d="M40.8 124.3v1.5c.1 0 .1.1.2.1 0-.6 0-1.2-.2-1.6zM169.1 124.6l-.9.3c0 .1-.1.1-.1.2 0 1 .2 1.6.4 2.1.2.9-.4 2.5-.1 3.6 1.4 1 3.9 1.1 4.9 2.8.7 1.2 0 3.4.8 4.5 1.2 1.2 4 .2 4.8-.2 0 .2.1.3.1.5.1-.5.2-1 .3-1.4h.6c.1-2.2.3-3.9-.2-5.6.3-.6.7-1 1.2-1.4-1-.2-2-1.1-1.4-1.8.3-.2.2 0 .3-.5-2.1-.4-3.5-1.6-5.6-2.2-1.6-.5-3.7-.5-5.1-.9z"/><path d="M.2 124.8h.6v.1c0 .1-.1.2-.1.3-.1 0-1-.2-.5-.1v-.3z"/><path fill="#FFF" d="M102.7 124.8c.1 0 .2.1.3.1-.1 0-.2-.1-.3-.1zM117.6 164.5c-.3 0-.6-.1-.9-.1 0-1.4 0-1.4-.2-2.4.5-.1.4-.1.7-.4v-.4c-.2-.1-.5-.2-.8-.4.4-.9.9-1.7 1.4-2.6-.6-1-.6-1.8-.8-2.7.4-.1.8-.1 1.2-.2 0-.1.1-.1.1-.2-.2-1-.6-1.7-.5-2.7h-.8c-.1-.7.3-1.1.2-1.6-.1-.4-.6-1-.7-1.6-.5 0-.5.1-.9-.1 0-.1.1-.1.1-.2h1.4c0-.4.1-2.3.2-2.9l.6-1.2c-.2-.4-.3-.8-.5-1.2-.3-2.9.4-4.4 1-6.2-.9-.3-1-2.3-.4-2.8l.3.3v-.6c-.3-.4-.6-.6-.7-1.2.4-.4.6-.7.9-1.2-.2-.2-.3-.5-.5-.8h.5c0 .2.1.3.1.5 1-.1 1.6-.5 1.7-1.4-1.5 0-1.6.3-2.6.6-.9.3-1.2-.5-1.9-.1v.5c-.1 0-.2-.1-.3-.1v-.4c.2-.2.4-.5.7-.8 1.1.1 3 .2 3.6 0 .1-.2.1-.3.2-.5-.2-.1-.4-.1-.7-.2v-.4c.1-.1.2-.1.4-.2l-.2-.2c-1.7.4-7.6-.3-8.7-1.2 0-.1.1-.1.1-.2.6-.1 1.2-.2 1.4-.8 0-.1-.1-.1-.1-.2-.6.3-3.9.2-4.6-.3v-.1c.5-.1 1-.1 1.4-.2-.1 0-.2-.1-.4-.1.2 0 .4-.1.6-.1v-.1c-.9-.1-1.6-.2-2.2-.2-.6.1-1.2.2-1.7.4-1-.2-3.8-.7-5-.2.4 0 .5 0 .7.2-2.6.1-5.3.4-8.6.4 0 .1-.1.2-.1.3-.8 1.3.1 10.1 0 12.1-.8 0-.9.4-1.2.9v.1h1.2c.1.2.2.3.4.5-.1.5-.6 1.2-.5 2 .2 1 .5 2.5.3 3.8-.6 3.3-.6 6.7-.8 10 .2.2.5.4.8.7-.6 2.3 0 6.3 0 7.9v1.8c.3.1.6.1 1 .2-.2.5 0 1.1.2 1.8l-1.2-.3c-.1.6-.2.4-.5.8.5 2.8-.7 5.5.2 8.1 1.4.1 2.4.2 3.3-.4 0 .4-.1.2.1.5h.1c.6-1.4 7.1-.3 9.1-.7 5.1-.9 8-2.7 10.3-6.5.6-1 1.4-1.4 1.4-2.9h1.2c-.4-.6-.6-.8-.8-1.2.2-.1.5-.2.8-.4-.1 0-.1-.1-.1-.3zM150.4 146.2c0 .6 0 .5-.4.7v-.2c-.2-.5-.3-.9-.5-1.4h.1c.8.3 1.2-.1 1.6-.7v-.1H150c-.1.4 0 .3-.2.5h-.3c.2-.8.1-5.5 0-5.8-.4 0-.5 0-.7-.2.6-.5 1.1-.5 1.2-1.6-.4-.8-.5-1.4-.4-2.5h-.5c0-1.1.6-2.4.2-3.4 0 .1-.1.2-.1.4 0-.6.1-1.5-.2-1.8-.1.4-.1.8-.2 1.2v-2.5c0 .2-.1.4-.1.6 0-.9-.1-1.8-.4-2.4.1 1.8 0 2.6-1 3.4-.1-.1-.2-.1-.3-.2-.6-1.4-1.9-1.8-3.1-2.7 0-.1.1-.2.1-.4-.4-.2-.8-.3-1.2-.5-.1-.4-.1-.8-.2-1.2h-.1l-.1.1c0 .3-.1.6-.1.9-.6-.4-1.8-.9-1.6.2-.4 0-.8-.1-1.2-.1.1-.4.2-.6.5-.9-.2-.2-.3-.4-.5-.6-1 .5-1.8 0-3.2.3-.1.4-.1.9-.2 1.4h-.6l-1-1v2.2c-.6-.1-.5-.4-1 .2-.6.2-.8.1-1.2.6.1.4.2.1 0 .4-.6.6-2.8 1.6-3.1 2.2 0 .4.1.8.1 1.2-.2.7-.9.5-1.2 1 0 .4-.1.9-.1 1.4-.4 1-1.2 1-1.2 2.6.2.1.4.2.7.4-.8 0-1.6-.1-2.4-.1 0 2.2-1.1 7.1.6 8.3v17.7c-.1-.4-.1-.8-.2-1.2-.1 0-.1.1-.2.1.1 1 .1 2 .2 3.1.1 0 .1-.1.2-.1 0-.1.1-.2.1-.4.2 1.2.3 2.5.5 3.8 0-.2.1-.4.1-.7.1.5.2.7.1 1.2-.1-.1-.2-.1-.3-.2-.1 1-.1 1.9-.2 2.9.8-.3 1.2 0 1.9-.3.1-.4.1-.5.3-.7.4.1.8 0 1.2.1 0 .6-.4 1-.2 1.5.9 1.8 3.5 2.4 5.9 3.4.2-.4.1-.3.5-.5.1.1.1.2.2.3-.1.4-.2.2.1.5.7-.2 1.4-.4 2-.6l.6.6c3.4-.2 9.4-2.9 9.9-6.7-.4 0-.5.1-.4-.1 1-.7 1.4-1.9 1.4-3.6h-.2s-7.1-.4-7.6 0c-1.1.9-1.4 2.1-3.2 2.5-3.6.8-5.8-2.3-5.2-5.9v-4.3c.4-.1.5-.1.7-.3-.2-.1-.3-.2-.5-.3 0-.1.1-.2.1-.3.2-.4.5-.4.8-.8-.9-1.1-1.6-3.2-.6-5.4-.8-1.2-.4-2.7 0-4.1.2-.6-.4-4-.6-4.6.1 0 .2-.1.3-.1.6.4 1 .7 1.8.8v-.6c-.5-.2-.3 0-.4-.4.2-.1.4-.1.6-.2v-.3c-1.5-.8-2.5-1.9-1.5-3.6-.8-.9-.8-2 .6-2.4-.2-.4-.1-.6-.3-1.2.4.1.2.2.6 0-.1-.2-.2-.5-.3-.8 3.2-2 8-.6 7.2 4.3-.3 1.8-.3 2.9 0 5 .1.8-.4 1-.3 1.5.1.5.5.9.4 1.7-.5 3-.1 6.4 0 9.3 0 0-.3 6.3-.3 6.7.2.2.4.3.6.5.8.2 2.6 0 3.3-.2.1 0 .1.1.2.1-.1 1.1.4.6-.1 1.4.1.3 0 .1.2.3.2.1.3.2.5.4.1 0 .2-.1.4-.1.2-1-.5-1.1-.4-1.7h.4c.7.6 1.9.7 2.9.8.1-.2.1-.3.2-.5-.4-.5-.9-.3-1.6-.6v-.1c.6-.2 1.1-.4 1.6-.7 0-2.4-.2-11.6.7-12.5.4.2 1 .4 1.4.2v-.5c-.3-.4-.6-.7-.9-1 .1-.6.2-1.3.3-1.9-.2-.1-.5-.1-.8-.1zM8.8 175.5c1.2.1 2.3.2 3.4.3.2-.4.2-.5.6-.7v.5c1 0 2.1-.1 3.2-.1.9-1.9-.3-5.1.3-7.4.1-.4.1-1.2-.3-1.6.4-.8 0-1.8.2-2.9.1-.5.4-.8.6-1.2 0-.1-.8-7.3-.9-8H14c.1-.2.1-.3.2-.5 1.3-.1 11 1.3 12 .5.6-.1.2-.1.5-.4.8.1.9 0 1.8 0 0-.9.2-7.1-.1-7.3-.8-.4-6.3-.3-6.5-.3v-1c-.4.2-.6.6-1.2.4-.6-.2-.9-.8-1-1.4-1.4.1-2.6-.2-3.4-.9.1-.4.2-.8.4-1.2h.5c.5.1 1 0 1.4.2 0 .2.1.4.1.7-.6-.1-1.2-.2-1.7-.3.2.7 1 .8 1.8.8v-.4l1.2.3v-.2c-.4-.2-.4-.2-.5-.7-.2.1-.4.1-.6.2 0-.6 0-.8-.3-1-.6-.2-1.2-.3-1.7-.5v-.1c.2-.3.3-.6.5-.9l-.9-1.2c0-.2.1-.3.1-.5.4-.1.9-.2 1.4-.4 0-.6-.1-1.2-.1-1.7.6.1.8.2 1.2 0 .1-.5.1-1 .2-1.4H19c-.2.2-.2.4-.5.6H18c0-.8-.2-2 .2-2.4 1.8-1 3.2.6 4.1.3 2.5-1 5.1-.4 7.8.1 1.2.2 2.9-.5 4.1-.8 0-.6 0-.6.3-.9.1-.1.2-.1.3-.2.6.2 1.1.4 1.6.6 0-.3-.1-.6-.1-1-.8 0-1.5.3-2 0h-.2c.1-2.2.7-4.5.1-6.2h-.1c-1-.2-4.9-.4-5 .2-1.9-.6-4.4-.2-6.2-.5-.6-.1-1.9.4-1.8.4-1.1.3-3.3-.7-4.7-.3l-1.2.6.3 1.2c.3.1.5.1.7.3v.1c-.9.2-3.8.6-4.6 1.4-.1.2-.1.4-.2.6H8.5c-.1 2.5-.1 5.1-.2 7.6l.7.7c0 .7-.1 1.4-.1 2 .1.2.2.5.3.8l-.3 1.2.6.6c.2.6-.6 2.2-.7 2.8-.3 2-.4 6.9.7 7.6-.9.7-.9 1.4-.5 2.4-.1 0-.2.1-.4.1-.5-.3-.8-.5-1.2-.3-.3 1-.6 2.1-.4 3.3h.4v-.2c.3-.6.5-1.4.5-2.3 1.4-.1 1.7.4 2.8.4v.4c-.2 0-.4-.1-.7-.1l-.3 1.2c.2 0 .5.1.8.1l-1 1v.5c.3.3.4.2.5.7-2.6 1.5-1.2 12-1.2 15.7zM76.4 125.3c.1 0 .1.1.2.1-.1 0-.1-.1-.2-.1zM160 130.8h-.8c-.2.6-.4 1.1-.6 1.6-.3 1.4.6 2.2-.1 3.6h-.1c-.1-1-.4-1.8-.1-2.5h-.4c-.1 1.6-1 3.1.4 3.9.1-.3.1-.6.2-1 .1 0 .1.1.2.1.1 1.2.4 2.3.1 3.4-.1 0-.1-.1-.2-.1 0-1.1-.4-1.3 0-2.1-.3.1-.6.2-1 .3 0 1.4.1 3.6 1 4.1.1 0 .1-.1.2-.1v-1c.1.1.2.1.3.2 0 5.3 3.2 7.3 6 9.8.4.4.5 1.4 1 1.6 1.2.8 1.9 1 2.7 2.1-.2.5-.2.6.1 1l.4.4c1.1.3 1.7-.4 2.3-.1.8.4.2 1.4.6 1.9.8 1.2 1.9 2.4 2.3 4.1.2 1.1-.2 2.9-.4 3.9-.4 1.4.5 2.6.8 3.6h-.1c-.1 0-.1-.1-.2-.1-.3-.7-.6-1.4-1-2.1l-.3.3c-1 .4-1.6 1.1-2.8 1.4 0-.6.1-.7-.3-.9-1.2-.1-2.4-.1-3.6-.2-.6-1.1-1.3-2.2-1.6-3.6-.2-1 .2-1.7 0-2.1-.4-.3-.4-.7-.8-1-1.2.3-2.8.3-4.3.2-.2.9-.3 1.8-.5 2.8.1.8.7 1.6.5 2.7-.2 1-.7 2.2-.3 3.3.2.2.3.4.5.6.1-.3.2-.6.4-1h.4c.4.3.6.5.8 1-.1 0-.2.1-.3.1l-.6-.3c.3.5 0 .8.2 1.4.4 1.2 2.3 2.4 3.8 2.7.2-.4.1-.3.4-.3.1.1.2.1.3.2-.2.5-.2.6.1 1l.4.4c.7.2 1.2 0 1.6-.3.1.1.2.2.3.4.4-.2.5-.5.8-.7 1.4.2 1.7.6 3.6.6.2-.2.4-.4.6-.7.1.1.1.2.2.4.6-.3.8.1 1.5-.1 1.3-.3 3.2-1.4 3.9-2.4-.1-.2-.1-.4-.2-.7 1.1 0 2.2-1.2 2.7-2.1.1.1.2.1.3.2 0 .4.1.5.2.8h.1v-.8c.5.1.6.1.9.1.1.7.1 1.4.2 2.1.1-.4.2-.9.4-1.4v.2c.1.2.2.5.3.8h.1c0-.6-.1-1.2-.1-1.7h-.1c0 .2-.1.4-.1.6v-.2c-.1-.3-.1-.6-.2-1h.4c0 .2.1.3.1.5.1-.3 0-.3.2-.2v-2.2c0 .2-.1.3-.1.5 0-.6.1-1.4-.2-1.7 0 .1-.1.2-.1.4 0-.5-.1-1-.1-1.5 0 .1-.1.2-.1.4-.1-.8-.2-1.5-.4-2.3 0 1.2.2 2-.4 2.5v.2h-.1c.2-2 .7-6.1-.8-7.2-.2.2-.1.2-.6.3-.2-.2-.5-.4-.8-.6.7 0 .9-.2 1.2-.8-1.1-3.9-4.1-6.4-6.7-8.9-.4-.5-.2-.8-.7-1.2-.8-.4-1.4-.8-2.2-1.2h-.3c.2.4.3.8.5 1.2-.2 0-.4-.1-.7-.1 0-1 .1-1.6-.2-2.2-.3.2-.2.2-.7.3v-.2l-.3-1.2c-1.2 0-1.4-.4-1.9-1-.3.2-.6.5-1 .8-.7-.2-1.4-.3-2.1-.5v-.1c.1-.7.2-1.1.7-1.4h.2c.1.2.2.5.3.8.2-.1.3-.1.5-.2.1.2.2.3.4.5.2-.1.3-.2.5-.3-.8-1.8-2.3-4.5-1.7-7.4l1.5-3.9c.3-1.6-.6-2.7-.6-3.8 0-.6.7-1.4.2-2.1-.2-.4-.4-.7-1-.8-2.5.6-6 2.3-5.9 5.3z"/><path d="M.7 125.5v.2M2.1 125.4c.3.1.2 0 .4.3h-.6c.1-.1.1-.2.2-.3z"/><path fill="#FFF" d="M13.2 125.4c-.7.2-1.2.2-1.2.9h.1c.7-.2 1.5-.3 2.2-.5-.1-.1-.2-.2-.3-.4h-.8zM47.8 125.4c0 .1.1.2.1.3h-.1v-.3zM107.8 125.4l.2.2c-.1-.1-.1-.2-.2-.2zM54 125.6c0 .2.1.3.1.5.2.5.5.8 1 .9l.1-.1v-.6c-.7-.1-.6-.3-1-.7H54zM58 175.5c-.2 0-.4.1-.7.1 1.4 0 3 .2 4.1.8-.5 0-.9 0-1.2.2 1.9 0 3.6-.1 4.8-.1.1-.4.2-1.2 0-1.8.5-1 .3-2.9 0-3.8.9-.8.4-5.9.4-7.8v-6.8l-.3-2.4c.6-2.1.4-6.5.1-8.7h.5v.2c.7 1.4.7 3.3 2 4.1-.9 1.5 1 4.5 1.5 5.6h.7c-1.4.7.2 4.1.7 5.3 1.4 4.1 2.8 8.2 4.1 12.3.5 1.5.7 3.2 1.4 4.4h.1v-.7l1.2-.3.1.1c.1.6.1 1.2.2 1.7-.1-.8-.2-1.6.2-1.6h1.6l.3.9c-.4.4-.9.8-1.2 1.2-.1-.2-.1-.4-.2-.7-.1.1-.2.1-.3.2-.1.2-.1.4-.2.6-.1-.1-.1-.2-.2-.3 0 1.3-.2 1.8-.3 3 .9-.3 1 0 1.9-.3.2-1 1.2-1 1.7-1.4.4.5.2.7.6 1 0-.2.1-.5.1-.8.2.1.4.1.7.2.1.6.1 1.2.2 1.8h.1v-.9c0 .2.1.3.1.5.1-.7.2-1.5.3-2.2.2.2 0 0 .2.1v.4c.1 0 .2-.1.3-.1 0-1-.2-3 .6-2.9.2 0 .3-.1.5-.1v-.6c0-2.2.1-4.5.1-6.7-.2 0-.4-.1-.7-.1v-26c.4-.2.9-.4 1.4-.6v-.5c-.9-.2-1.1-.6-1.4-1.2.1-.4.2-.7.3-1h1v-.4c-1.4-.3-.7-2.2-.6-3.6-.2-.1-.5-.2-.8-.4h.3c.2-.2.5-.2 1-.2 0-.8.2-7.1-.1-7.3-.2 0-.4-.1-.6-.1 0-.7.1-1.4-.3-1.7-.7-.3-7.5-.2-8-.1.2.7.4 6.9 0 7.9-.3.2-.6.5-.9.8.2 1 1.6 3.3 2.2 3.9-.2.4-.3.5-.2 1-.3-.1-.6-.1-.9-.2-.1 4.5-.1 9-.2 13.5 0 2 .8 5-.5 6.1h-.1c0-3.2-1.6-4.9-1.9-7.3-.1-.6 0-1.7-.4-2.5-.4-.6-1.1-.5-1.4-1.2h.4c.1.2.1.3.2.5.1 0 .1-.1.2-.1v-.1c-1.4-4.6-2.7-9.1-4.1-13.7-.4.1-.5.1-.9-.1v-.1c.8-2.5-.9-5.5-1.7-8-2.4 0-6.4-.6-8.3.3.5 4.6-.9 10.3 0 15.3.6.1.8.2 1 .6.2.9-.1 6.1-.5 6.8-.2.1-.5.2-.8.3-.2 2.4 0 3.8.5 6.1.3 1.7-.2 2.7.2 4.3-.1.6-.2 1.1-.4 1.6.9 3 .2 9.3.2 13.8z"/><path d="M138.1 125.8c.2.1.3.1.5.2v.1h-.7c.1-.1.1-.3.2-.3z"/><path fill="#FFF" d="M35 126.5h.5c0-.2-.1-.3-.1-.5H35v.5zM149.2 126.2c0 .2.1.5.1.8h.1c0-.2-.1-.5-.2-.8.1 0 .1 0 0 0zM104.7 126.6c.1.1.2.1.4.2v.3h-.5c.1-.1.1-.3.1-.5z"/><path d="M141.7 126.7l.9.3c0 .1-.1.1-.1.2-.2 0-.4-.1-.6-.1-.1-.1-.2-.3-.2-.4z"/><path fill="#FFF" d="M35.9 127.1c.2.2 0 .1.3.2-.2-.2 0-.1-.3-.2z"/><path d="M106.8 127.1c.2 0 .3.1.5.1-.1.1-.2.2-.3.4h-.4c0-.1-.1-.1-.1-.2l.3-.3zM164.8 127.2h.4v.3c.1.3.1.4-.1.7 0 .1-.1.1-.1.2-.2-.1-.3-.2-.5-.4v-.5c.1-.1.1-.2.3-.3zM163.6 127.4c.1.1.2.2.4.3v.1c-.2 0-.4-.1-.6-.1.1-.1.1-.2.2-.3zM25 127.8h.3v1.5c.6.4 1.1.7 2.1.8v.4c-.4.4-.8.8-1 1.4-1-.2-1.6 0-2.4.5-.6-.2-.9-.5-1.4-1 .2-1.5 1.6-1.1 2.6-1.8-.6-.3-.8-.1-.9-1 .3-.3.5-.6.7-.8zM93.3 127.9c.2.2.1 0 .1.5h-.2c0-.2 0-.4.1-.5z"/><path fill="#FFF" d="M149.1 127.9c0 .3.1.6.1 1-.1-.4-.1-.7-.1-1zM9.8 128.2v.7c.4-.1.8-.1 1.2-.2 0-.2.1-.4.1-.6-.5 0-.9 0-1.3.1z"/><path d="M21.2 128.1c.4.1.3.1.5.3v.1c-.1 0-.2.1-.4.1h-.1v-.5zM47.7 128.2c.2.2.2.1.3.4 0 .1-.1.2-.1.3h-.2v-.7z"/><path fill="#FFF" d="M197.9 128.2c.2.2 0 .1.3.2-.2-.2 0-.1-.3-.2z"/><path d="M104.3 128.2c.1.2.2.3.4.5-.1.2-.1.3-.2.5h-.1l-.1-.1v-.9zM172.1 128.2c.4.2.7.3 1 .5v.1c-1.6-.1-1.8.9-3.4.7v-.4c.8-.5 1.8-.3 2.4-.9zM45.7 128.4c.3.3.4.7.5 1.2-.1.1-.2.1-.4.2-.4-.4-.3-1-.1-1.4zM99 128.4c.8 0 1 .2 1 1-.7-.1-.8-.4-1.2-.8.2-.1.2-.2.2-.2z"/><path fill="#FFF" d="M122.1 128.4c-.3.3-.4.4-.6.9.7.1.6.3 1 .2.3-.5.8-.3 1.4-.2v-.3l-.2-.2c0-.1-.1-.1-.1-.2-.5.3-.7-.1-1.5-.2z"/><path d="M47.2 128.6c0 .1.1.1.1.2 0-.1 0-.2-.1-.2z"/><path fill="#FFF" d="M125.2 128.6c-.1.1-.1.2-.2.3.2-.1.5-.1.8-.2-.2-.1-.4-.1-.6-.1z"/><path d="M101.9 128.7h.2v.3c-.2 0-.3-.1-.5-.1.1 0 .2-.1.3-.2zM109.5 128.9c.2 0 .4.1.7.1.2.5.4.8.4 1.5h-.4c-.3-.4-.6-.8-.7-1.6zM21.1 129.5c-.2 0-.3-.1-.5-.1l.4-.4h.1v.5zM102.6 129c1.5 0 2.9.8 3.6 1.7.3-.2.4-.4.8-.3.4.2.6.3.7.8-.1.1-.1.2-.2.3-1.6-.6-2.4.4-3.4 1.2-.4-.3-.9-.6-1.4-.9 0-.1.1-.2.1-.4.8-.1 1.2-.5 1.6-1 0-.1-.1-.1-.1-.2-.6-.2-1.1-.5-1.6-.8-.1 0-.1-.2-.1-.4z"/><path fill="#FFF" d="M120.5 129c-.1.1-.1.2-.2.3v.3l.6.3c-.1.1-.2.2-.3.4l.3.6c.4-.4.4-.9.4-1.7h-.3c-.2-.1-.3-.2-.5-.2z"/><path d="M139.3 129.2h.5v.4h-.3l-.2-.2v-.2zM162.6 129.2h.4c-.2.8 0 1.1 0 2-.7-.2-1.4-.3-1.5-1 .3-.4.7-.7 1.1-1zM100.4 129.5c.5.1.3-.1.5.3h-.5v-.3zM47.3 129.6c0 .1.1.1.1.2 0-.1 0-.1-.1-.2zM112.4 131h-.6l-.6-.6v-.7h.3c.4-.1.8-.1 1 0 0 .5 0 .9-.1 1.3z"/><path fill="#FFF" d="M182.1 129.7c0 .2.1.3.1.5l.4-.4v-.1h-.5z"/><path d="M46.6 129.8c.1 0 .2.1.4.1v.4l-.2-.2c-.2-.2-.1 0-.2-.3zM47.5 129.8c.2.2.2.2.1.5h-.1v-.5z"/><path fill="#FFF" d="M122.3 129.8c.1.5 0 .6.5.8v-.7c-.2-.1-.3-.1-.5-.1zM35.8 129.9c0 .3-.1.2.1.5-.1-.2-.1-.4-.1-.5zM123.9 130.2c-.1.2-.1.4-.2.6h.6c.1 0 .1-.1.2-.1v-.1l-.4-.4h-.2z"/><path d="M18.9 131.2c0-.6 0-.8.5-1l.8.8c-.1.1-.1.2-.2.3h-.1c-.3 0-.6 0-1-.1zM28.4 130.8c.3.1.1 0 .3.2h-.1c-.1-.1-.1-.2-.2-.2z"/><path fill="#FFF" d="M199.4 130.8c.2 0 .3.1.5.1 0 .2.1.3.1.5h-.1c-.2-.1-.4-.1-.6-.2v-.1c0-.1.1-.3.1-.3z"/><path fill="#FFF" d="M199.5 131c.1 0 .1.1.2.1-.1-.1-.1-.1-.2-.1z"/><path d="M114.7 131.3c.4.2.5 1 .1 1.2v-.7c0-.1 0-.3-.1-.5z"/><path fill="#FFF" d="M121 131.3c-.3.1-.6.2-.9.4.4 0 .7.1 1 .1 0-.1-.1-.3-.1-.5zM180 131.9c.1 0 .1.1.2.1-.1 0-.2-.1-.2-.1zM149.2 132c0 .1.1.2.1.3h-.1v-.3z"/><path d="M116.5 133.1c.2 0 .3.1.5.1-.1.1-.2.2-.3.4h-.5v-.1c.2-.2.2-.3.3-.4zM108.7 145.3c.5-.1 1-.2 1.4-.3v.1c-.3.3-.2.4-.2 1-.3 0-.6.1-.9.1v.1c.3.7.1.7-.4 1.2.4.5.8.6 1 1.4-.3.3-.5.6-.6 1.2.7-.2 1 .1 1.4.4v.4c-.7.1-1.2.4-1.5.9 0 .4-.1.9-.1 1.4h.2c.2-.1.3-.2.5-.4v.1c-.2.5-.2.6-.1 1.2.6.1.8 0 1 .6-.6-.2-.8-.1-1.4 0 0 .1-.1.1-.1.2.3 1.8.3 4 0 5.4 0 1.2.1 2.3.1 3.4-.6 3.7-3.8 5.7-8.3 4.4 0-.6-.1-.6-.3-1 .2-.1.4-.1.7-.2-.2-.7-.4-1.4-.7-2.1h.8c-.2-.4-.3-.9-.5-1.4.3-.4.6-.7 1-1v-.3c-.5-.1-1-.1-1.4-.2.2-.8.5-1.7 1.2-2-.1.2-.2.4-.3.7.2.1.3.2.5.4 0-.7.2-1 .7-1.2-.4-.8.1-1.4 0-2.3l-.3-.3h-.1c0 .7-.4 1.3-.8 1.7-.2-.4-.5-.8-.8-1.2.6-.8.3-1.2.2-2.3.5-.4.8-.7 1-1.4-.4 0-.8.1-1.2.1v-.1c.2-.6.5-1 1-1.4l-.9-.9c-.2.1-.5.1-.8.2.2.5.3 1 .5 1.4-.4.7-.8 1.5-1.4 2v-.2c-.2-.6 0-1.8.1-2.2 0 .1.1.1.1.2.1.2.2.5.3.8 0-.1.1-.1.1-.2.2-.2.1-.1.2-.5-.5-.7-.7-.9-.7-2.3.4-.8.5-1.1.5-2.6.5.2.6.4 1.2.3-.2-.5-.4-.4-.8-.5v-.1c.2-1 .4-.9.2-2 .5-.4.3-.4.5-.9-.2-.3-.5-.6-.4-1 .3-.5.8-.6 1.2-1v-.1h-.7c-.3-2.8.2-5.2-.4-6.9.3-.3.5-.7.8-1h1.4c0-.4.1-.7.1-1-.2 0-.4.1-.6.1 0 .2-.1.4-.1.7h-.5c-.1-.5-.2-1-.4-1.5l.1-.1c.8.1 1.2.4 1.7.8.5-.2.7-.4 1.4-.5.1.4.2.4.4.7-.5 0-.5 0-.9.2.1.1.2.2.3.4.5.2.5.2.4.7.3-.1.6-.1.9-.2.2-.6.1-1 .5-1.4.6.6 1.8.6 2.3 1.4.4.6.8 3.6 1.2 4.6-1 .5-.8 3-.5 4.1.4.1.6.1.8.5-.3.1-.6.2-1 .3.2.1.2.2.2.4zM163.9 133.2h.3v.4c-.1 0-.1.1-.2.1l-.1-.1v-.4zM66.9 133.7c.2 0 .4.1.7.1v.3l-.2.2c-.5-.2-.6-.2-.5-.6zM109 133.9c0 .1.1.1.1.2 0-.1 0-.2-.1-.2zM128.9 133.9c.1.1.2.2.4.3 0 .2-.1.3-.1.5-.1 0-.2.1-.3.1v-.9z"/><path fill="#FFF" d="M20.5 135.1c.2.2.4.3.6.5.2 0 .3-.1.5-.1v-.4h-1.1z"/><path d="M49.5 135.4c.1 0 .2.1.3.1-.2.2-.2.3-.6.4.2-.4.2-.3.3-.5zM129 135.8c.2 0 .4.1.6.1v.1c-.1.1-.2.2-.3.4h-.1c0-.3-.1-.5-.2-.6zM46.7 136.3h.5c.1.4.1.7.2 1h-.1c-.2-.1-.4-.1-.6-.2v-.8zM76.8 136.5h.2c-.2.2 0 .1-.3.2 0 0 0-.1.1-.2zM47.7 136.6c.2.2.2.1.3.5h-.4c.1-.2.1-.3.1-.5zM128.5 136.6h.3c-.1.1-.1.2-.2.3h-.1v-.3zM142.5 137.2h.4v.6h-.1c-.1-.1-.2-.1-.3-.2v-.4z"/><path fill="#FFF" d="M88.4 138.9c-.3.3-.7.3-1 .7v.1h.6c.2-.4.6-.3 1.2-.3 0-.1-.1-.2-.1-.4-.2 0-.4 0-.7-.1z"/><path d="M41.6 139.4c.2.2.1 0 .2.4h-.3c.1-.1.1-.2.1-.4z"/><path fill="#FFF" d="M85.8 139.5c0 .1-.1.2-.1.4.5.1.9.2 1.2 0-.1-.1-.2-.1-.3-.2-.2-.1-.5-.1-.8-.2zM195.3 139.7c-.1.2-.1.3-.2.5h.7c0-.1-.1-.2-.1-.4-.2 0-.3 0-.4-.1zM197 140.2c.3.2.2 0 .3.4-.1 0-.1.1-.2.1-.2-.3-.2-.2-.1-.5zM117.7 141.2c0 .1-.1.2-.1.4h.2c0-.1-.1-.2-.1-.4z"/><path d="M42 141.4h.2c0 .1-.1.2-.1.3-.4 0-.3 0-.5-.2.2-.1.3-.1.4-.1zM44.1 141.6c.4.1.2 0 .4.3-.4-.2-.2-.1-.4-.3zM160.3 141.7c.2 0 .4.1.6.1-.1.1-.2.2-.3.4h-.4c.1-.2.1-.3.1-.5zM66.2 142.1h.5c-.1.1-.1.2-.2.4-.1-.1-.2-.3-.3-.4zM197.5 142.3h.2c-.1.1-.1.2-.2.4h-.4c0-.1-.1-.1-.1-.2.2-.1.3-.1.5-.2zM3.4 142.5c0 .1.1.2.1.3h-.1v-.3zM64.5 142.7c0 .2-.1.4-.1.7-.3 0-.6-.1-1-.1v-.1l.1-.1.4-.4h.6zM45.4 142.8c.1.3 0 .2-.1.4h-.1c.1-.2.1-.3.2-.4zM198.5 142.9c.6 1.2.6 3.5.4 5.1h-.1c0-.1-.1-.2-.1-.4 0-1.6-.1-3.2-.2-4.7zM69.7 143c.7.2.6.3 1.4.2v.4c-.2.2-.4.3-.6.5-.3-.1-.6-.2-1-.3v-.1c0-.3.1-.5.2-.7zM125.8 143.2c.2.2.1 0 .2.4h-.3c0-.2 0-.3.1-.4zM196.9 143.6c-.2 0-.5.1-.8.1.1.2.1.4.2.7h.1c.3-.1.6-.2.9-.4-.2-.4 0-.2-.4-.4zM43.7 143.8c.3.2.2 0 .3.4-.1 0-.1.1-.2.1h-.1v-.5zM3.1 144.1h.2-.2zM64.3 144.2c.3.2.2 0 .3.5h-.4c0-.1 0-.3.1-.5z"/><path d="M198.9 144.2h.2l-.2.2v-.2zM3.3 144.3h.2-.2zM2.6 144.4c.1 0 .2.1.4.1-.4.4-.1.8-.8.6.2.4.3.4-.1.8 0-.7.2-1.2.5-1.5zM45.7 144.6c.1.3 0 .2-.1.4h-.1v-.3c.1 0 .1-.1.2-.1zM16.5 144.7c.1.1.2.1.3.2 0 .1-.1.2-.1.4h-.4v-.3c.1-.1.2-.2.2-.3z"/><path fill="#FFF" d="M117.3 144.7c.1 0 .2.1.3.1l-.3.3v-.4z"/><path d="M47.7 144.8c.2 0 .4.1.7.1v.1c-.1.1-.2.2-.3.4-.6.2-.8 1-1.2 1.4v-1.4c.3 0 .6 0 .8-.6zM125.8 145.2c0 .1.1.1.1.2-.1-.1-.1-.2-.1-.2zM199 145.2c.2.2.1 0 .2.3h-.2v-.3zM2.6 145.4c.1.1.2.1.4.2-.1 0-.1.1-.2.1-.1-.1-.2-.2-.2-.3zM196.7 145.5c.1.1.1.2.2.4h.1v-.1l-.3-.3zM199.1 145.6c.2.3.1.2.1.7h-.1v-.7zM2.4 145.7l.2.2c-.1-.1-.1-.2-.2-.2zM16.3 145.7c.6.1 1.1.1 1.6.2l-.3.3c-.3.5-.8.7-1.4.8l-.3-.3c.1-.3.1-.6.2-.9.1-.1.2-.1.2-.1zM2.4 145.9l.3.3c-.4-.2-.2-.1-.3-.3zM19.7 146c.1.3 0 .3-.1.6h-.9v-.3c.4-.1.7-.3 1-.3zM71.1 146c.3.1.6.2.9.4v.4l-1.2-.3v-.1c.1-.2.2-.3.3-.4zM2.8 146.2H3l-.2.2v-.2zM199.2 146.4c0 .1.1.1.1.2 0 0 0-.1-.1-.2zM15.5 146.6h.3v.4h-.4c0-.1.1-.2.1-.4z"/><path fill="#FFF" d="M154.4 146.6c-.1.2-.1.3-.2.5h.3c-.1-.1-.1-.3-.1-.5z"/><path d="M127.9 146.7c0 .2.1.4.1.6l-.3-.3c.1-.1.1-.2.2-.3zM46.7 147.8c0-.2.1-.4.1-.7.3.1.6.2.9.4v.3h-1zM113.8 148.6c0-.7.3-1.1.7-1.4h.1c.2.6.3.8 1 .8-.1.4-.2.7-.4 1-.1 0-.1.1-.2.1h-.2c-.1-.2-.2-.4-.4-.6-.2 0-.4 0-.6.1zM3.1 147.2c.1 0 .1.1.2.1-.1 0-.2 0-.2-.1zM92.9 147.2c.3.2.2 0 .3.4h-.3v-.4zM199.2 147.4v.4c0-.1-.1-.1-.1-.2s.1-.1.1-.2zM2.9 147.5v0zM16.1 147.5c.2 0 .4.1.7.1v.4h-.1c-.2-.1-.5-.2-.7-.3.1 0 .1-.1.1-.2zM110.9 147.8c.2.1.3.1.5.2-.1.1-.1.2-.2.3h-.4c.1-.2.1-.3.1-.5zM127.9 147.8v1.2h-.2v-.5c.1-.2.1-.4.2-.7zM49.5 148.1h.2v.1l-.2.2h-.1c0-.1 0-.2.1-.3zM198.8 148.1h.2c-.1.1 0 .1-.2 0zM199.2 148.2h.2-.2zM150.1 148.4h.3v.6h-.3v-.6zM198.8 148.6c0 .3.1.6.1 1h-.1v-1zM110.4 148.8h.3l.2.2c-.2.2-.3.4-.5.6h-.1c0-.3 0-.6.1-.8z"/><path fill="#FFF" d="M140.3 148.9c.1.2.2.4.3.7h.5c-.2-.2-.3-.4-.5-.7h-.3zM152.5 149.1c-.1.3-.2.6-.4 1 .5.3 1 .6 1.5 1 .1-.1.2-.2.4-.3v-.1c-.5-.7-.5-1.2-1.5-1.6zM48.7 150c0-.4 0-.5-.2-.7-.3.1-.6.1-.9.2.1.2.2.3.4.5h.7z"/><path d="M70.6 149.3h.4v.4c-.2.2-.2.3-.6.4v-.5c.1-.1.2-.2.2-.3zM127.7 149.4c.4.3.2.9.3 1.4-.1.1-.2.1-.3.2v-1.6zM116.2 149.5c.1.2.2.8.1 1.2h-.7v-.3l.6-.9zM198.8 149.9c0 .1.1.1.1.2 0 0 0-.1-.1-.2zM68.7 150.1h.4c-.1.1-.2.2-.3.4 0-.1-.1-.3-.1-.4z"/><path fill="#FFF" d="M99.8 150.2c-.2.4-.4.4-.4 1h.3c0-.1.1-.1.1-.2v-.8zM155.3 150.2c-.2 0-.4.1-.7.1v.1c.1.4.2.9.4 1 .2.1.5.1.8.2-.2-.5-.4-.6-.5-1.4z"/><path d="M42.2 150.4c.2.2.1 0 .2.4h-.3c.1-.1.1-.3.1-.4z"/><path fill="#FFF" d="M155.8 150.4c.3.4.6.8 1 1.2.6 0 1.2-.1 1.7-.1l.3.6c.1-.1.2-.1.3-.2.1-.2.1-.3.2-.5-.1-.4-.1-.4-.3-.7h-.1c-.6.1-.4.3-1 .5-.1 0-.1-.1-.2-.1-.1-.2-.1-.4-.2-.7h-1.7zM161 151.3v.4c.4-.1.3-.1.5-.3v-.1h-.5z"/><path d="M127.7 151.7h.2c0 3.6-.1 7.1-.1 10.7-.1 0-.1-.1-.2-.1 0-3.9-.2-6.9.1-10.6zM70.4 152.1h.6c.2.2.3.5.5.8l-.2.2h-.2c-.2-.5-.5-.6-.7-1zM13.1 153.2c-.5-.1-1-.1-1.5-.2-.1-.1-.1-.2-.2-.4 0-.1.1-.1.1-.2 1.2-.1 2.4.3 2.4 2-.2.2-.1 0-.2.3h-.1c-.4-.1-.7-.2-1-.3v-.5c.3-.3.4-.1.5-.7zM42.6 152.3h.2c0 .1-.1.2-.1.3-.4 0-.3 0-.5-.2.2 0 .3-.1.4-.1zM198.9 152.6c0 .1-.1.2-.1.3h.3v-.3h-.2zM3.8 152.7c.1 0 .1.1.2.1 0 0-.1-.1-.2-.1zM129 152.9c.2 0 .3.1.5.1-.1.1-.2.2-.3.4h-.4c0-.1-.1-.1-.1-.2l.3-.3zM198.7 153.3c.1.5-.1.3.3.5 0-.2-.1-.3-.1-.5h-.2zM3.5 153.4c0 .1-.1.2-.1.4.1-.1.2-.1.4-.2 0-.1-.1-.1-.1-.2h-.2zM48.3 153.5c.2.1.3.2.5.3-.1.1-.1.2-.2.3-.1-.1-.2-.1-.3-.2v-.4z"/><path fill="#FFF" d="M105.8 153.5c-.1.2-.1.4-.2.6.4-.1.3-.1.5-.3v-.3h-.3z"/><path d="M169.5 153.5c.1.3 0 .2-.1.4 0-.2.1-.3.1-.4zM176.9 153.5c.2.2.2.1.3.4-.1.1-.2.1-.4.2l-.2-.2c.1-.2.2-.3.3-.4z"/><path fill="#FFF" d="M196.3 154.1v0z"/><path d="M11 155.2c0-.2.1-.5.1-.8h1c-.1.4-.3.5-.6.8H11zM177.8 154.4c.1.1.1.2.2.4-.1-.1-.2-.1-.3-.2 0-.1 0-.1.1-.2zM12.5 154.9l.4.4v.1h-.4v-.5z"/><path fill="#FFF" d="M90.2 154.9c-.2.2-.4.5-.7.8-.2.8.2 1 1.2 1-.2-.6-.4-1.2-.5-1.8z"/><path d="M130.2 155.1h.5c-.1.4-.1.4-.4.6h-.1v-.6zM169.9 155.3c0 .3.1.3-.5.4v-.2c.1-.1.3-.1.5-.2zM92.6 155.4c0 .1.1.2.1.3h-.1l-.1-.1c0-.1 0-.1.1-.2zM171.9 155.5h.4c0 .1-.1.1-.1.2-.1-.1-.2-.1-.3-.2zM42.6 155.7h.4c-.1.2-.2.5-.4.8v-.8zM173.2 155.9c.6.1.8.3 1 .7 0 .1-.1.1-.1.2-.5.2-.8.2-1.2 0v-.5c0-.1.1-.3.3-.4zM175.6 156.4c.3.1.6.1 1 .2v.6h-.4c-.2-.3-.4-.6-.6-.8zM13.5 157.4c0 .2.1.3.1.5h-.4c.2-.1.3-.3.3-.5zM180 157.4c.2.2.1 0 0 .3l-.2.2c0-.1.1-.3.2-.5zM12.6 158.7h.3c-.2.4-.1.3-.5.5h-.1c.1-.2.2-.4.3-.5zM75.6 159.4c.7.7.4 2.8.1 3.6h-.1v-3.6zM10.5 159.7c.9 0 1.4.1 2.2.2.1-.4 0-.4.5-.5l.1.1c0 .9.4 1.4.5 1.8h-.1c-.8-.4-2.2-.7-3.2-1v-.6zM98.2 159.5c.2.2.4.3.7.5-.1.1-.1.2-.2.3-.1 0-.2.1-.3.1 0-.3-.1-.6-.2-.9z"/><path fill="#FFF" d="M13.7 159.6h.2c0 .1-.1.2-.1.4h-.1v-.4z"/><path d="M180.5 160.3h.3l-.3.3v-.3zM180.5 161.6c.2.2.4.3.6.5h-.5v-.2c0-.1 0-.1-.1-.3zM99.3 161.9h.5l-.5.5v-.5zM176.8 162h.6c.1.1.1.2.2.3-.2.2-.4.4-.7.6-.1-.6-.3-.4-.1-.9zM142.8 162.1v.4c-.4 0-.3 0-.5-.2.4-.1.3 0 .5-.2zM176.4 162.4h.2c-.1.1-.1.2-.2.3v-.3zM93.5 162.9h.4v.1c0 .1-.1.1-.1.2l-.3-.3zM127.7 163c.8.7.3 2.7.3 4.1-.1 0-.1-.1-.2-.1 0-1.3 0-2.7-.1-4z"/><path fill="#FFF" d="M183.3 163.1c0 .2.1.5.1.8 0-.3 0-.5-.1-.8z"/><path d="M98.2 163.6c.2 0 .4.1.6.1v.4c-.3.2-.3.2-.7.1.1-.2.1-.4.1-.6z"/><path fill="#FFF" d="M157.5 163.8c-.1.1-.2.2-.3.4.4-.1.3-.1.5-.3 0 0-.1-.1-.2-.1zM55.9 163.9c-.1.1-.2.2-.3.4v.1c.2 0 .5.1.8.1-.1-.5-.1-.5-.5-.6z"/><path d="M75.6 164.1c.1 0 .2.1.3.1-.1.6-.1 1.1-.2 1.6h-.1-.1c0-.7 0-1.2.1-1.7zM43.8 164.3c.6 0 .5 0 .7.5h-.6c-.1 0-.2-.1-.3-.1v-.3c.1 0 .1 0 .2-.1z"/><path fill="#FFF" d="M100.3 164.3c.2.2.1 0 .2.4h-.3c0-.1 0-.2.1-.4zM183.1 164.8v1h.1c0-.3 0-.7-.1-1z"/><path d="M180 165.1c.1.1.2.1.4.2l-.2.2h-.2v-.4z"/><path fill="#FFF" d="M52.4 165.2c0 .6-.2.8 0 1.2.1.1.1.2.2.3 1-.5 1.5.2 2.5.4v-.3c-1-.5-1.9-1.1-2.7-1.6z"/><path d="M178.6 165.3c.2.1.3.2.5.3 0 .1-.1.1-.1.2h-.4v-.5zM14.5 165.4c0 .4.1.8.1 1.2-.2.1-.3.1-.5.2.1.2.2.3.2.8l-.6-.3v-1.6c.3-.2.6-.2.8-.3zM142.5 166.4c.2 0 .4.1.7.1 0 .1.1.2.1.3-.2 0-.4.1-.7.1 0-.2 0-.4-.1-.5z"/><path fill="#FFF" d="M124.8 166.5c0 .6.1 1.1.1 1.6.1-.5.1-1.2-.1-1.6zM125.7 167.3c0 .6.1 1.2.1 1.7h.1c0-.5 0-1.4-.2-1.7z"/><path d="M175.6 167.5c.2.2.1 0 .2.3h-.2v-.3zM176 167.5c0 .1.1.2.1.3h-.1v-.3zM182.9 167.5h.2c-.1.1 0 .1-.2 0zM127.9 167.7c.3.2.4.4.3.8-.2 0-.3.1-.5.1v-.1c.1-.3.1-.5.2-.8zM175.4 168.4h.2v.1l-.2.2h-.1c.1-.1.1-.2.1-.3zM75.5 169c.2.4.1.8-.2 1 0-.5.1-.7.2-1z"/><path fill="#FFF" d="M183.3 169v0zM125.1 169.3c-.1.6 0 1.6.2 2.1h.2c0-.8.1-1.8-.4-2.1zM46.7 169.7c.5.2 1 .3 1.4.5v.2H48c-.5-.2-1-.3-1.4-.5.1 0 .1-.1.1-.2z"/><path d="M170.8 170.5c.4.2.2 0 .4.4h-.1c-.1-.1-.2-.3-.3-.4z"/><path fill="#FFF" d="M182.4 170.6v0zM182.6 170.7v0z"/><path d="M137.1 170.8h.6c-.1.1-.1.2-.2.3h-.1c-.3-.2-.1.1-.3-.3zM132.5 171.3h.2c-.1.5 0 .3-.4.5.1-.2.1-.4.2-.5zM75.1 171.6l.6.6c-.1.4-.1.8-.2 1.2-.1-.1-.2-.2-.4-.3v-1.5z"/><path fill="#FFF" d="M182.4 173.3c0 .2.1.4.1.7 0-.2-.1-.5-.1-.7zM34.7 173.4c.1.2.2.5.4.8h.5c-.1-.4-.3-.5-.6-.8h-.3zM37.6 173.5c-.3 0-.6.1-1 .1.1.2.2.3.3.5.6-.2 1.5.6 2.1 1 .7-.1 1.4-.2 2.1-.4 0-.4 0-.4-.2-.6-.2.1-.4.1-.7.2-.1-.2-.2-.3-.3-.5-.7.1-1.8 0-2.3-.3.1 0 0 0 0 0z"/><path d="M139.9 175.1c0-.3-.1-.6-.1-1 .6-.4 1.1-.9 2.1-.6 0 .4-.1.8-.1 1.2-.6-.2-.4-.3-1-.5-.1.6-.2.6-.5.9h-.4zM171.8 173.6c.4.4.2 1.2-.2 1.4.1-.4.1-.9.2-1.4zM76 174.1h.3v.4c-.1.1-.2.1-.3.2h-.1c0-.3.1-.4.1-.6z"/><path fill="#FFF" d="M181.3 174.6c0 .2.1.3.1.5 0-.2-.1-.4-.1-.5zM88.8 174.8c.1 0 .1.1.2.1-.1-.1-.1-.1-.2-.1zM125.4 174.8v.3c0-.1.1-.3 0-.3.1 0 0 0 0 0zM51.9 174.8v.4c.1 0 .1.1.2.1.1-.1.2-.1.3-.2-.1-.1-.1-.2-.2-.3h-.3zM86 174.8c.1 0 .2.1.4.1-.1 0-.2 0-.4-.1zM88.8 174.9c0 .1-.1.1-.1.2.2-.1.1-.1.1-.2zM89.2 175h.5-.5zM86.1 175.1c.1 0 .2.1.3.1-.1 0-.2 0-.3-.1zM87.5 175.2h.5-.5zM166.4 175.2c0 .1.1.1-.1.2 0 0 .1-.1.1-.2zM47.8 175.3h.2-.2zM48.1 175.3h.2-.2zM48.5 175.3c.2 0 .3.1.5.1-.2 0-.3 0-.5-.1z"/><path d="M165.9 175.4c.2 0 .3.1.5.1v.1c-.4 0-.3 0-.5-.2z"/><path fill="#FFF" d="M88.2 175.5c.3.2.8.3 1.2.1-.4 0-.8 0-1.2-.1zM89.6 175.6h1-1zM46.2 176.2c.1 0 .1.1.2.1-.1-.1-.1-.1-.2-.1zM43.8 176.3c-.7 0-1.4.1-2 .1-.2.3-.3.3-.5.8h.3c1.2-.4 2.3.1 3.4-.4-.3 0-.6-.1-1-.1v-.1h.7l-.9-.3zM46.5 176.3c.1 0 .1.1.2.1-.1 0-.2-.1-.2-.1zM61.5 176.3c.5 0 1 .1 1.4.1-.4 0-.9-.1-1.4-.1zM76.9 176.3c.1.6.1 1.2.2 1.7 0-.5.1-1.4-.2-1.7z"/><path d="M80.5 176.3h.2c0 .1-.1.2-.1.3-.4 0-.3 0-.5-.2.2 0 .3-.1.4-.1z"/><path fill="#FFF" d="M42.7 176.5c.1.1.2.1.3.2-.3 0-.6-.1-.9-.1.2-.1.4-.1.6-.1z"/><path d="M83 176.5c0 .1.1.2.1.3H83v-.3z"/><path fill="#FFF" d="M43.3 176.6c.4 0 .4 0 .6.2-.4-.1-.4-.1-.6-.2zM165.9 176.7v.4h.3v-.1c-.1-.2-.2-.2-.3-.3zM45.1 176.8c.1 0 .2.1.3.1-.1 0-.1.1-.2.1l-.2.2c.4-.1.4-.1.6-.4h-.5zM43.4 176.8h.2-.2zM43.7 177h.5-.5z"/><path fill="#FFF" d="M44.3 177v.3c0 .1.1.1.1.2.5 0 .6 0 .9-.3-.4 0-.7-.1-1-.2z"/><path d="M80.3 177h.2l-.2.2v-.2z"/><path fill="#FFF" d="M42.7 177.5c-.5.1-1 .2-1.4.3v.1c.1.4.1.8.2 1.2.2.2.4-.2.5-.2.8-.5 2.1-.4 2.8-1.2-.9 0-1.2-.1-2.1-.2zM76.3 178.2c-.1.4-.1 1.6.2 1.9.2.2 0 .1.3.2v-.7c-.1-.5 0-1.1-.5-1.4zM82.5 179.6c0 .1.1.2.1.3h-.1v-.3zM83.2 179.7c-.2.5-.2 1-.1 1.5h.2c0-.4 0-.9-.1-1.5zM41.6 180.1c.1 0 .1.1.2.1-.1 0-.2 0-.2-.1zM56.6 180.2c.5.4.9.1 1 0h-1zM59 180.2c-.3.2-.7 0-1.2.2h.2c.9.4 2.6.1 2.6.1.2 0 .3-.1.5-.1.1.3.2.1.1.4.3-.1.6-.2 1-.3 0 .2-.1.5.3.3.2.2 0 .1.3.2.1-.7 1.6-.5 2.6-.3-.1.1-.1.2-.2.3.8-.2 2.7.2 3.3-.2-.2-.1-.5-.1-.8-.2.5 0 .8 0 1 .2-.2.1 0 .1-.1.2l.5-.5c-.6-.1-1.3-.2-1.9-.3 0 .4.1.2-.1.4-.7.3-6.6-.3-8.1-.4zM64.4 180.2c.6 0 1.3.1 1.9.1-.6 0-1.3 0-1.9-.1zM13.5 180.3h.2-.2zM47.9 180.3h.7-.7zM49.3 180.3h.9-.9z"/><path d="M52.4 180.5c4.9.5 9.7 1 14.6 1.5v.1c-3.6-.4-7.3-.7-11-1-1-.2-3.8.1-3.6-.6z"/><path fill="#FFF" d="M69.6 180.5v.3c-.2 0-.4.1-.7.1v.1h2.7c-.7-.1-1.4-.3-2-.5zM12.1 180.6h0zM13.5 180.6h0zM67.4 180.6h.2-.2zM12.3 180.8h.3-.3zM64.5 180.8c.2.2.1.2.4.1-.2 0-.3 0-.4-.1zM10 180.9l.2.2c-.1-.1-.2-.1-.2-.2zM13.7 180.9c.1.1.2.1.4.2-.1-.1-.2-.1-.4-.2zM181.9 180.9c.7.1 1.5.1 2.2.2-.7-.1-1.5-.1-2.2-.2zM16.8 181v0z"/><path d="M32.8 181h.8v.1h-.2c-.1 0-.9.3-.6-.1zM33.7 181c.3 0 .6.1.9.1v.1H34c-.1-.1-.1-.1-.3-.2zM35 181c1.5.1 3 .1 4.5.2 0 .1-.1.1-.1.2-1.5-.1-3-.1-4.5-.2.1-.1.1-.1.1-.2z"/><path d="M32.3 181.1c.1 0 .2.1.4.1v.1c-.2 0-.5-.1-.8-.1.2 0 .3-.1.4-.1zM39.9 181.3c.7.1 1.4.1 2.1.2-.7-.1-1.4-.2-2.1-.2z"/><path fill="#FFF" d="M164 181.3c.2 0 .4.1.6.1-.2-.1-.4-.1-.6-.1z"/><path d="M42.3 181.4c1.2.1 2.4.1 3.6.2v.1c-.9 0-3.2 0-3.6-.3z"/><path fill="#FFF" d="M167.5 181.4h.5-.5zM168.2 181.4h.7-.7zM169.4 181.4c.2.2.4.2.8.1-.3 0-.6-.1-.8-.1zM16.4 181.5c0 .1.1.1.1.2 0-.1 0-.2-.1-.2z"/><path d="M46.2 181.5c2.2.1 4.4.1 6.7.2-1.2 0-6.2.2-6.7-.2zM105.2 181.5c-.2 0-.3.1-.5.1.6.1 0 0 .5.4v-.5zM105.4 181.5c.1 0 .1.1.2.1-.1-.1-.1-.1-.2-.1zM104.1 181.6c-.1.1-.2.1-.4.2v.1h.2c.3 0 .6.1.9.1v-.1c-.2-.2-.2-.2-.7-.3z"/><path fill="#FFF" d="M171 181.6c.1 0 .1.1.2.1-.1 0-.1-.1-.2-.1zM171.6 181.6c.3.2 0 .1.4.1-.1 0-.3-.1-.4-.1z"/><path d="M53.4 181.7h.4v.1c-.2-.1-.3-.1-.4-.1zM54 181.7c.4 0 .8.1 1.2.1-.4-.1-.8-.1-1.2-.1zM55.3 181.7c.9.1 1.7.2 2.6.4-.7 0-2.2 0-2.6-.4zM135.3 181.8c.1 0 .2.1.4.1-.1-.1-.2-.1-.4-.1zM144.2 181.8c.2.1.4.1.7.2-.3-.1-.5-.2-.7-.2zM136.2 181.9c.6.3 2 .4 2.4.2-.8-.1-1.6-.2-2.4-.2zM31.3 182c.2.2.2.2.3.5l-.1.1h-.1c-.2 0-.3-.1-.5-.1 0-.1.1-.1.1-.2.4-.1.2 0 .3-.3zM68.2 182c1.1.1 2.2.2 3.4.4v.1l-3.9-.3c.1-.1.3-.2.5-.2z"/><path fill="#FFF" d="M7.5 182.1l.3.3c-.1-.1-.2-.3-.3-.3z"/><path d="M58.2 182.1h.2-.2zM109.5 182.1c.4.1.2 0 .4.3-.2-.2-.2-.1-.4-.3zM138.7 182.1c.4.3 1.4.3 1.7.1-.6 0-1.1 0-1.7-.1zM26.5 182.3h.2l-.2.2v-.2zM72.4 182.3c.4 0 .8.1 1.2.1v.1c-.6.1-1.1.2-1.6 0 .3-.1.2-.1.4-.2zM110.2 182.3h.3-.3zM111.1 182.3h1.5c-.2.2-1 .2-1.5 0zM113 182.3h.2-.2zM113.3 182.3c.6 0 1.1 0 1.4.2-.7 0-1.1 0-1.4-.2zM115.5 182.3c1.5 0 3 .1 4.5.1-1 .1-4.7.1-4.5-.1zM61.3 182.3c.2 0 .3.1.5.1-.2 0-.3 0-.5-.1zM140.5 182.3h1-1zM134.8 182.5c.4 0 .9.1 1.4.1v.1c-.5-.1-.9-.2-1.4-.2z"/><path fill="#FFF" d="M102.4 182.6h.2-.2z"/><path d="M64.9 182.7h.3-.3zM65.3 182.7h0zM66.7 182.8c.2 0 .3.1.5.1-.2 0-.4 0-.5-.1z"/><g fill="#FFF"><path d="M191 151.3c.9.8 1.7 2.1 1.7 3.6 0 2.6-1.6 4.3-4.3 4.3-2.8 0-4.5-2.1-4.5-3.7 0-1.2.7-1.8.8-1.8l-.7-.3v-1.8h3.4v2.2c-.8 0-1.5.4-1.5 1.3s1.1 1.4 2.4 1.4c1.2 0 2.3-.6 2.3-1.8 0-1-1.1-1.8-1.2-1.9l1.6-1.5zM192.5 141.4v4.9h-1.6v-1.2l-.8.2v2.5l.8.2v-1h1.6v3.9h-1.6v-.8l-5.3-1.6v.5H184v-4.7l6.9-2.1v-.8h1.6zm-3.9 6v-1.6l-2.6.8 2.6.8zM184 140.9v-7.2h2.7v2.1h-1.1v1.8h2.1v-2.3h1.6v2.3h1.5v-1.2h1.6v4.5h-1.6v-.8h-5.3v.8H184zM184 133.2v-7.3h2.7v2.1h-1.1v1.9h1.7v-2.3h1.6v2.3h2V128h-1.1v-2.1h2.7v7.3h-1.6v-.8h-5.3v.8H184z"/></g></svg>